<?xml version="1.0" standalone="no"?>
<!DOCTYPE svg PUBLIC "-//W3C//DTD SVG 20010904//EN"
 "http://www.w3.org/TR/2001/REC-SVG-20010904/DTD/svg10.dtd">
<svg version="1.0" xmlns="http://www.w3.org/2000/svg"
 width="794.000000pt" height="796.000000pt" viewBox="0 0 794.000000 796.000000"
 preserveAspectRatio="xMidYMid meet">

<g transform="translate(0.000000,796.000000) scale(0.100000,-0.100000)"
fill="#6d0201" stroke="none">
<path d="M5691 7924 c-12 -15 -21 -30 -21 -34 0 -15 -27 -18 -68 -7 -35 9 -44
8 -61 -7 -15 -13 -19 -26 -14 -47 7 -38 -20 -50 -48 -20 -11 11 -25 21 -31 21
-6 0 -31 -21 -54 -46 -41 -43 -43 -48 -37 -93 10 -87 -53 -98 -71 -12 -5 22
-15 41 -22 41 -18 0 -23 21 -11 47 6 14 22 25 44 29 49 9 101 84 58 84 -8 0
-15 -4 -15 -10 0 -5 -9 -19 -20 -30 -16 -16 -33 -20 -85 -20 -62 0 -65 -1 -65
-24 0 -15 13 -36 36 -55 46 -41 41 -66 -14 -56 -60 11 -125 11 -129 0 -2 -6
15 -21 37 -35 37 -23 50 -50 19 -41 -8 2 -34 4 -58 5 -37 2 -49 8 -72 35 -21
25 -32 31 -48 26 -23 -7 -29 -25 -8 -25 31 0 47 -35 41 -84 -8 -53 -15 -61
-44 -46 -13 7 -20 21 -20 41 0 37 -19 45 -59 25 -46 -24 -51 -21 -48 37 2 50
1 52 -23 50 -23 -1 -111 -22 -118 -29 -2 -1 4 -14 13 -28 11 -16 15 -35 11
-51 -5 -21 -12 -25 -40 -25 -30 0 -35 -4 -41 -30 -5 -24 -12 -30 -32 -30 -13
0 -33 10 -42 21 -24 30 -52 19 -119 -48 -61 -61 -61 -85 1 -62 44 15 63 8 70
-28 3 -15 8 -38 12 -50 9 -30 -19 -42 -44 -19 -26 23 -50 20 -61 -9 -9 -23
-39 -36 -40 -17 -1 4 -11 20 -24 36 l-24 29 -23 -27 c-25 -29 -59 -35 -59 -11
0 9 9 34 21 56 33 66 16 79 -30 22 -21 -27 -59 -60 -85 -73 -27 -15 -46 -32
-46 -42 0 -10 -13 -27 -29 -39 -16 -11 -34 -31 -41 -44 -7 -13 -30 -31 -51
-41 -22 -9 -37 -19 -35 -21 2 -2 40 15 85 38 84 42 104 47 157 34 26 -6 36 -2
57 19 32 32 76 34 102 6 17 -19 17 -21 0 -40 -15 -17 -16 -24 -6 -46 14 -32 7
-44 -27 -44 -19 0 -30 7 -37 22 -14 32 -39 33 -55 4 -7 -14 -28 -32 -46 -41
-40 -19 -74 -60 -74 -91 0 -35 -10 -54 -30 -54 -13 0 -27 -17 -43 -52 -13 -29
-54 -85 -91 -124 -61 -67 -66 -75 -66 -117 0 -26 -5 -49 -12 -53 -7 -5 -35 -8
-63 -9 l-50 0 -3 -64 c-2 -35 -9 -73 -16 -83 -11 -15 -11 -28 -4 -55 14 -52 6
-64 -40 -57 -28 4 -41 2 -51 -10 -7 -8 -33 -18 -57 -22 -24 -3 -44 -10 -44
-15 0 -9 39 -46 74 -72 10 -8 17 -22 14 -33 -4 -25 -48 -31 -64 -9 -12 15 -20
13 -93 -31 -45 -27 -81 -54 -81 -60 0 -20 -40 -63 -62 -66 -15 -2 -26 -16 -37
-50 -26 -77 -50 -85 -83 -28 -22 38 -68 43 -68 7 0 -12 7 -33 16 -45 19 -28
13 -38 -30 -46 -19 -4 -45 -15 -58 -25 -13 -11 -42 -22 -64 -26 -63 -11 -74
-15 -74 -31 0 -8 13 -17 30 -20 34 -7 55 -28 45 -45 -6 -8 -31 -9 -86 -4 -78
6 -79 6 -91 -19 -8 -20 -19 -26 -43 -26 -39 0 -79 -37 -65 -60 22 -35 12 -43
-44 -36 l-53 7 -18 -37 -18 -38 32 -26 c33 -28 39 -48 19 -68 -9 -9 -7 -16 7
-32 17 -19 17 -20 -15 -50 -30 -28 -32 -32 -20 -60 10 -24 10 -36 0 -59 -17
-43 1 -72 40 -64 22 4 31 1 36 -11 9 -24 26 -20 71 19 45 38 64 43 83 20 16
-20 3 -55 -21 -55 -23 0 -61 -18 -71 -34 -4 -6 -8 -21 -8 -33 0 -17 -6 -23
-23 -23 -28 0 -47 17 -47 42 0 23 -12 23 -34 -1 -15 -16 -15 -22 -5 -40 11
-16 11 -27 0 -57 -16 -45 -4 -62 30 -43 13 7 30 20 37 31 17 23 54 23 75 0 23
-25 21 -49 -3 -57 -13 -4 -20 -15 -20 -31 0 -19 -6 -26 -29 -30 -68 -14 -39
-58 74 -113 146 -71 154 -74 208 -69 65 5 132 46 240 148 67 63 83 73 118 75
51 3 67 19 77 75 10 57 34 65 58 18 9 -18 27 -44 39 -58 13 -14 25 -34 27 -45
2 -15 11 -20 33 -20 29 0 30 2 42 70 7 39 15 90 19 115 8 53 16 60 66 60 33 0
39 4 45 28 13 52 8 97 -15 126 -32 42 -29 73 9 81 61 14 62 88 1 120 -50 27
-67 64 -52 111 7 20 9 52 5 72 -3 20 -8 95 -10 167 -3 146 5 177 67 231 52 46
90 58 139 46 50 -13 63 -9 78 24 19 42 13 59 -24 77 -21 10 -35 24 -35 34 0
10 21 49 46 87 65 96 74 124 74 215 0 91 3 94 80 104 48 6 70 26 70 66 0 29
49 111 97 162 27 28 32 41 28 65 -5 22 0 38 19 63 14 19 26 45 26 57 0 50 86
94 184 94 41 0 46 11 46 91 l0 59 88 -6 c55 -4 101 -13 125 -25 66 -33 97 -18
97 49 0 70 38 120 80 107 14 -5 29 3 51 24 23 24 39 31 69 31 32 0 44 -7 81
-46 55 -56 83 -72 167 -89 59 -13 69 -12 90 1 17 11 34 14 56 9 17 -3 46 -7
64 -8 22 -2 41 -11 54 -27 20 -24 20 -24 34 -5 8 11 17 31 20 45 10 47 13 50
48 50 42 0 47 11 39 94 l-6 65 45 27 c24 15 49 36 54 48 7 17 20 22 74 26 36
3 76 13 90 22 24 16 48 22 81 19 9 0 31 -15 48 -32 18 -17 54 -40 79 -51 65
-28 82 -46 82 -84 0 -32 1 -33 33 -28 17 3 54 19 80 35 27 16 63 29 81 29 35
0 73 31 61 49 -3 6 -24 11 -45 11 -29 0 -42 -5 -50 -20 -17 -31 -66 -27 -82 7
-7 15 -32 38 -56 51 -72 40 -45 70 35 37 46 -20 44 -20 88 15 21 17 55 33 77
36 62 10 52 25 -71 106 -16 11 -45 18 -77 18 -41 0 -55 5 -74 25 -29 31 -37
31 -80 2 -25 -18 -37 -35 -44 -68 -9 -34 -16 -44 -31 -44 -18 0 -20 5 -16 60
2 38 8 63 17 68 26 15 15 44 -22 62 -69 33 -144 -7 -128 -69 11 -45 -53 -126
-99 -126 -18 0 -19 6 -12 75 4 49 3 75 -4 75 -5 0 -36 -30 -68 -67 -98 -114
-139 -153 -162 -153 -12 0 -24 7 -28 16 -8 23 23 79 54 95 14 7 36 35 49 62
15 28 35 52 49 57 30 11 32 26 6 40 -31 16 -48 12 -70 -16z"/>
<path d="M5997 7620 c-18 -14 -40 -20 -77 -20 -57 0 -90 -13 -90 -35 0 -8 -13
-21 -28 -29 -48 -25 -57 -44 -57 -120 l0 -71 -37 -3 c-32 -3 -39 -7 -44 -30
-16 -76 -42 -97 -78 -63 -12 11 -34 21 -48 21 -14 0 -39 5 -57 11 -26 9 -35 8
-50 -5 -23 -21 -60 -20 -145 3 -59 16 -77 27 -125 75 -33 33 -65 56 -78 56
-21 0 -83 -44 -83 -59 0 -19 139 -115 208 -145 116 -50 160 -74 171 -94 5 -10
5 -39 -1 -74 -9 -51 -8 -61 11 -91 13 -21 21 -51 21 -78 0 -31 6 -49 23 -67
31 -34 31 -106 -1 -132 -25 -21 -22 -36 19 -89 11 -13 19 -34 19 -46 0 -18 11
-27 60 -45 34 -13 74 -35 90 -50 28 -26 30 -33 30 -100 l0 -72 -39 7 c-42 7
-38 11 -85 -95 -26 -59 -104 -130 -144 -130 -11 0 -31 -13 -44 -28 -13 -15
-43 -39 -67 -52 -46 -26 -56 -39 -65 -81 -6 -30 -42 -49 -91 -49 -32 0 -36 -4
-56 -49 -11 -27 -27 -52 -35 -55 -20 -8 -17 -36 6 -71 12 -18 20 -47 20 -73 0
-23 9 -60 20 -82 27 -54 25 -96 -10 -183 -32 -79 -37 -107 -20 -107 6 0 28
-11 50 -25 21 -14 58 -29 81 -34 22 -5 48 -19 56 -30 9 -13 25 -21 44 -21 17
0 43 -7 58 -15 72 -37 136 -30 386 42 66 19 161 38 210 44 129 14 130 14 170
69 22 30 65 68 113 99 109 71 130 89 163 140 17 26 67 74 115 110 97 73 114
94 114 133 0 55 -49 108 -177 188 -79 49 -82 71 -18 102 59 29 60 55 5 92 -32
21 -40 32 -40 56 0 16 5 32 10 35 18 11 10 25 -25 42 -38 18 -45 39 -18 58 17
12 17 15 0 49 -26 56 -22 83 16 106 17 11 36 21 42 23 12 4 -28 80 -107 202
-32 50 -58 98 -58 109 0 10 32 50 70 89 41 42 70 80 70 92 0 31 -78 102 -134
121 -73 25 -114 101 -82 154 9 16 16 40 16 54 0 19 7 29 24 35 36 14 66 74 66
131 l0 50 -67 34 c-38 19 -79 46 -92 60 -30 31 -69 34 -104 6z"/>
<path d="M4916 7331 c-10 -11 -20 -43 -23 -76 -5 -45 -11 -60 -30 -72 -22 -15
-28 -14 -71 5 -41 18 -79 25 -182 35 -24 2 -25 -1 -26 -53 -1 -90 3 -87 -109
-100 -60 -7 -73 -12 -97 -39 -16 -17 -28 -39 -28 -47 0 -9 -10 -33 -22 -52
-14 -23 -21 -48 -19 -69 2 -25 -4 -39 -27 -60 -45 -42 -102 -139 -102 -173 0
-37 -27 -56 -92 -65 -54 -8 -63 -23 -53 -85 9 -56 -17 -136 -70 -216 -53 -79
-56 -98 -15 -113 26 -9 30 -15 30 -49 0 -24 -8 -49 -19 -63 -18 -22 -22 -23
-71 -13 -44 9 -57 8 -91 -9 -82 -41 -132 -134 -110 -207 9 -29 9 -50 0 -84 -9
-38 -8 -53 6 -94 15 -40 16 -55 6 -82 -21 -62 -15 -82 37 -120 28 -21 48 -45
50 -59 7 -44 -7 -72 -43 -87 -38 -15 -38 -26 -2 -76 16 -21 19 -38 15 -83 -3
-30 -9 -60 -15 -66 -5 -5 -29 -13 -53 -17 -32 -5 -44 -12 -46 -27 -4 -28 -24
-143 -33 -185 -6 -32 -10 -35 -41 -35 -34 0 -35 -1 -31 -35 4 -43 15 -65 56
-111 22 -25 34 -50 38 -83 9 -60 70 -188 115 -240 32 -36 34 -41 27 -91 -6
-48 -4 -54 14 -60 18 -5 21 -16 23 -83 l3 -77 59 3 c92 5 106 14 106 65 0 39
4 47 39 75 44 35 78 40 142 20 34 -10 42 -9 59 7 11 10 22 33 26 51 7 39 26
44 49 12 16 -23 16 -23 32 -3 16 21 73 139 73 152 0 4 -17 -10 -38 -30 -58
-56 -67 -30 -32 95 11 40 20 100 20 133 1 118 30 175 98 191 67 17 142 92 142
142 0 10 18 35 40 56 22 20 40 46 40 57 0 26 -105 138 -147 155 -18 8 -46 14
-63 14 -36 0 -34 -3 -49 123 l-11 98 30 59 c18 36 30 75 30 99 0 49 17 89 42
96 10 4 24 17 31 30 6 13 28 34 47 47 19 13 43 40 52 59 12 27 37 47 100 84
241 140 321 196 333 235 3 10 -3 36 -15 57 -25 47 -25 64 -1 89 28 30 41 60
41 91 0 22 8 33 33 47 17 11 52 37 76 59 40 36 46 39 86 34 24 -4 73 -4 109 0
62 5 66 7 60 27 -4 12 -17 35 -29 51 -35 47 -37 62 -9 79 32 22 34 86 3 114
-14 14 -22 37 -26 78 -4 32 -13 65 -21 73 -11 12 -13 31 -8 88 7 89 2 95 -123
148 -103 44 -144 68 -193 111 -36 33 -89 64 -106 64 -5 0 -17 -9 -26 -19z"/>
<path d="M3853 7088 c-43 -20 -56 -38 -29 -38 8 0 18 5 22 11 3 6 20 19 38 30
41 25 22 23 -31 -3z"/>
<path d="M1017 6003 c-4 -3 -7 -21 -7 -40 0 -32 -1 -33 -40 -33 -22 0 -40 -4
-40 -10 0 -16 -46 -12 -60 5 -18 21 -46 19 -63 -6 l-15 -20 -41 20 c-22 12
-46 21 -54 21 -20 0 -47 -33 -47 -58 0 -37 -20 -35 -59 8 -47 52 -64 40 -54
-40 l6 -53 -31 6 c-24 5 -38 1 -61 -18 -36 -31 -46 -31 -65 -3 -19 26 -21 95
-4 100 35 12 -143 118 -197 118 -32 0 -31 -6 5 -40 17 -15 30 -33 30 -39 0
-16 -46 -13 -60 4 -23 27 -48 16 -99 -46 -28 -33 -51 -64 -51 -69 0 -4 14 -13
31 -21 27 -10 41 -10 94 4 83 22 127 21 156 -2 l24 -19 -23 -25 c-14 -15 -19
-27 -13 -31 5 -4 8 -13 5 -20 -3 -9 -35 -15 -98 -19 -97 -7 -126 -13 -126 -28
0 -5 41 -8 92 -7 90 3 92 3 98 -22 5 -21 12 -25 38 -22 28 2 32 -1 32 -23 0
-14 5 -25 10 -25 14 0 12 -46 -2 -58 -7 -5 -34 -13 -61 -17 -30 -5 -47 -12
-47 -21 0 -18 42 -28 83 -20 101 20 141 18 192 -10 117 -64 145 -74 200 -74
66 0 121 21 155 59 20 22 38 29 83 34 37 5 74 18 106 37 27 17 80 37 118 45
58 12 73 20 103 53 19 21 48 45 64 53 31 15 76 74 76 99 0 8 -9 29 -19 46 -14
24 -29 33 -59 38 -46 7 -72 35 -72 78 0 15 -5 39 -12 53 -9 21 -17 25 -35 21
-13 -3 -33 -8 -46 -12 -15 -3 -37 5 -67 25 -46 31 -61 36 -73 24z"/>
<path d="M1565 5176 c-17 -39 -20 -102 -6 -110 13 -8 44 63 45 103 1 47 -21
51 -39 7z"/>
<path d="M5600 4945 c-109 -14 -116 -17 -181 -61 -26 -17 -54 -34 -61 -36 -10
-4 -8 -11 5 -31 9 -14 17 -39 17 -56 0 -41 50 -93 87 -90 59 4 66 1 61 -31
l-5 -30 66 6 66 6 75 -50 c73 -48 79 -50 154 -53 74 -3 79 -2 87 19 5 12 12
22 16 22 4 0 14 4 22 9 11 7 10 16 -7 52 -11 24 -23 69 -27 99 -6 54 -6 56 45
128 28 40 49 76 46 81 -3 4 -29 6 -58 3 -29 -2 -83 3 -121 12 -79 19 -154 19
-287 1z"/>
<path d="M5202 4813 c-19 -7 -4 -23 23 -23 30 0 55 10 55 21 0 9 -56 11 -78 2z"/>
<path d="M1232 4751 c-25 -45 -53 -53 -152 -45 l-87 6 -21 -35 c-12 -19 -22
-47 -22 -61 0 -34 -16 -65 -46 -89 -15 -11 -24 -30 -26 -55 -4 -47 -27 -53
-69 -18 -35 29 -51 32 -68 12 -9 -11 -8 -18 6 -31 21 -22 75 -45 103 -45 29 0
25 -23 -15 -70 -45 -54 -45 -75 3 -97 24 -12 38 -26 40 -41 3 -19 -6 -26 -51
-47 -53 -23 -75 -41 -64 -52 3 -2 23 7 44 21 56 38 71 35 75 -16 3 -38 6 -43
29 -46 30 -4 54 20 72 74 23 66 40 50 43 -40 2 -69 -1 -85 -22 -121 -32 -55
-31 -72 6 -80 47 -10 116 5 166 37 70 44 94 21 58 -56 -22 -44 -13 -64 37 -84
37 -16 40 -19 35 -47 -4 -16 -9 -59 -12 -95 -4 -41 -12 -70 -22 -77 -23 -18
-127 -17 -146 2 -19 20 -49 8 -43 -16 3 -11 -6 -35 -19 -54 -13 -20 -24 -39
-24 -44 0 -4 18 -13 39 -20 76 -22 61 -81 -33 -125 -30 -14 -62 -26 -71 -26
-25 0 -31 -31 -9 -47 13 -9 31 -12 58 -7 21 3 48 2 60 -4 46 -22 114 -36 183
-36 39 -1 74 -4 77 -7 3 -3 -8 -19 -25 -35 -26 -25 -38 -29 -92 -30 -34 -1
-71 -2 -83 -3 -43 -3 -232 -218 -206 -235 4 -2 27 10 51 29 56 44 92 52 143
29 39 -18 41 -18 54 1 8 10 14 24 14 31 0 18 26 25 126 33 58 5 100 14 115 24
29 21 55 21 94 1 27 -14 38 -14 110 0 44 9 105 18 135 21 36 4 79 19 124 43
88 47 95 62 27 62 -49 0 -51 1 -51 29 0 35 26 69 89 115 58 43 87 95 71 126
-26 49 -123 78 -150 45 -35 -42 -98 6 -87 65 5 23 1 35 -17 53 -15 15 -26 41
-30 73 -12 83 -51 148 -107 178 -62 34 -84 63 -99 129 -19 87 -29 105 -61 112
-17 4 -42 19 -57 33 -23 24 -33 27 -89 25 -54 -1 -63 1 -63 17 0 20 33 66 68
93 26 22 66 97 93 176 23 66 24 97 3 105 -27 10 -219 7 -253 -5 -25 -9 -36 -8
-56 5 -14 9 -25 22 -25 29 0 6 25 31 55 55 31 23 60 55 66 70 6 15 19 43 29
63 28 54 2 72 -28 20z"/>
<path d="M5215 4730 c-44 -18 -89 -100 -63 -116 21 -13 166 94 154 114 -8 14
-61 15 -91 2z"/>
<path d="M744 4663 c-52 -47 -89 -113 -65 -113 17 0 82 62 92 89 13 33 -3 47
-27 24z"/>
<path d="M5500 4585 c-9 -11 -11 -35 -6 -85 7 -66 6 -71 -18 -95 -20 -20 -35
-25 -73 -25 -61 0 -79 13 -138 100 -27 38 -54 70 -60 70 -6 0 -40 -19 -76 -43
-55 -37 -66 -50 -80 -91 -9 -26 -23 -56 -32 -66 -39 -46 -48 -92 -23 -125 14
-20 36 -17 136 20 40 15 56 15 140 4 52 -7 145 -13 206 -13 66 -1 117 -6 125
-12 8 -7 29 -15 47 -19 18 -4 72 -33 119 -65 77 -52 87 -57 101 -43 21 21 57
33 100 33 28 0 44 7 63 28 14 15 33 32 42 37 23 14 10 60 -33 114 -28 35 -31
44 -25 80 6 34 3 45 -21 75 -27 34 -31 35 -117 42 -83 6 -93 9 -152 50 -62 42
-67 44 -138 44 -54 0 -78 -4 -87 -15z"/>
<path d="M4621 4526 c-35 -37 -78 -166 -55 -166 11 0 76 79 95 115 37 68 9
103 -40 51z"/>
<path d="M3330 4491 c-17 -16 -30 -36 -30 -45 0 -19 -38 -46 -67 -46 -20 0
-21 -3 -13 -26 7 -19 7 -31 -1 -40 -15 -19 -19 -18 -54 11 -43 38 -65 29 -97
-35 -44 -89 -37 -207 17 -280 16 -22 25 -47 25 -71 0 -48 21 -69 69 -69 21 0
60 -3 87 -6 l49 -7 -27 30 c-60 63 -19 98 55 47 26 -17 48 -24 70 -22 31 3 32
5 30 43 -4 54 -20 68 -60 53 -25 -9 -35 -9 -47 1 -22 19 -20 33 12 91 23 43
33 52 70 61 47 13 55 35 21 59 -62 43 -69 52 -69 85 0 19 9 50 21 69 28 49 24
120 -9 124 -14 2 -33 -7 -52 -27z"/>
<path d="M5120 4226 c-14 -8 -44 -18 -67 -22 l-41 -6 5 -52 c4 -41 1 -61 -16
-94 -11 -23 -21 -44 -21 -47 0 -3 21 -5 47 -5 33 0 53 -6 69 -21 13 -13 43
-23 78 -28 80 -11 97 -29 89 -100 l-5 -57 41 -14 c23 -7 52 -23 65 -35 18 -16
42 -24 93 -29 66 -7 71 -6 106 23 21 16 56 32 77 36 32 5 41 12 45 31 3 13 7
34 10 47 3 12 21 33 41 47 20 14 45 35 57 48 11 12 27 22 34 22 9 0 13 15 13
49 0 49 0 49 -67 99 -82 60 -105 72 -134 72 -12 0 -31 8 -41 17 -15 14 -41 17
-131 18 -62 0 -159 4 -217 8 -85 6 -110 5 -130 -7z"/>
<path d="M6040 4145 c-30 -31 -40 -35 -86 -35 -46 0 -55 -4 -78 -31 -19 -23
-26 -42 -26 -75 0 -24 -4 -44 -8 -44 -10 0 -47 -29 -103 -81 -29 -27 -39 -45
-39 -67 0 -35 -14 -46 -71 -56 -20 -3 -46 -17 -59 -31 -21 -23 -31 -25 -102
-25 -75 0 -78 -1 -84 -26 -5 -19 2 -43 25 -88 45 -88 41 -131 -14 -161 -19
-10 -42 -26 -51 -37 -17 -17 -16 -20 9 -46 22 -23 27 -37 27 -80 0 -50 1 -52
28 -52 19 0 39 11 61 34 23 24 45 36 75 40 61 9 254 -11 282 -29 13 -8 43 -15
68 -15 25 0 57 -5 73 -11 27 -12 120 -21 197 -20 22 1 50 -6 63 -14 14 -10 48
-15 95 -15 40 0 80 -4 88 -10 17 -11 30 4 30 38 0 13 18 40 43 66 33 33 53 44
86 49 23 3 45 7 47 10 3 3 -6 46 -20 97 -14 50 -22 98 -19 106 6 17 43 18 77
2 21 -9 33 -8 66 7 66 30 62 73 -12 115 -21 12 -49 36 -63 54 -13 18 -36 38
-50 46 -13 7 -27 21 -30 31 -3 9 -19 34 -35 54 -28 36 -30 43 -30 129 l0 91
-32 18 c-56 30 -90 35 -132 21 -41 -15 -51 -12 -79 23 -15 19 -28 23 -70 23
-30 0 -60 7 -71 15 -29 22 -38 19 -76 -20z"/>
<path d="M3640 4120 c0 -5 -18 -10 -39 -10 -30 0 -44 -6 -55 -22 -26 -36 -19
-64 25 -108 48 -48 49 -74 1 -78 -38 -4 -38 -17 0 -45 25 -19 27 -19 58 -1 33
20 70 79 70 112 0 10 9 45 20 77 26 77 26 96 0 67 -26 -27 -36 -28 -52 -2 -14
21 -28 27 -28 10z"/>
<path d="M664 3940 c-45 -21 -63 -36 -68 -53 -3 -14 -22 -44 -41 -67 -19 -23
-35 -47 -35 -53 0 -11 88 -54 93 -46 2 2 7 18 13 34 14 45 52 45 95 1 l35 -36
62 33 c70 36 82 58 59 104 -23 44 -103 113 -129 112 -13 0 -51 -14 -84 -29z"/>
<path d="M450 3920 c-24 -24 -17 -44 20 -60 54 -22 47 -63 -13 -76 -18 -3 -50
-15 -71 -26 -36 -18 -45 -19 -97 -8 -46 10 -62 10 -73 0 -13 -10 -13 -15 6
-40 20 -28 20 -40 3 -96 -5 -17 0 -26 27 -42 41 -26 78 -60 78 -72 0 -5 -13
-24 -29 -42 -15 -18 -32 -44 -36 -58 -10 -34 -23 -49 -67 -76 -49 -31 -48 -54
4 -98 62 -53 120 -58 228 -19 43 16 119 58 130 73 21 28 60 40 127 40 98 0
108 15 107 150 -1 137 -23 214 -78 269 -49 49 -70 50 -81 2 -4 -17 -11 -33
-15 -36 -5 -3 -32 5 -59 17 -43 19 -51 27 -51 50 0 18 12 42 34 65 45 50 53
79 27 92 -33 18 -99 13 -121 -9z"/>
<path d="M4461 3869 c-81 -22 -133 -46 -193 -89 -37 -27 -78 -39 -185 -55 -27
-4 -43 -12 -43 -21 0 -8 -9 -19 -20 -26 -18 -11 -19 -20 -14 -79 5 -52 3 -74
-11 -103 l-18 -38 26 -21 c26 -22 48 -92 62 -197 3 -25 14 -59 25 -75 11 -17
20 -44 20 -61 0 -30 5 -34 85 -73 61 -30 89 -49 100 -71 22 -43 45 -52 74 -29
18 15 32 18 65 13 49 -8 64 -18 68 -47 2 -18 12 -23 53 -29 36 -5 54 -13 65
-30 8 -12 27 -36 41 -52 25 -28 28 -29 57 -17 24 10 39 10 66 1 19 -6 61 -11
93 -10 88 2 226 -15 261 -33 18 -8 45 -18 62 -22 l30 -7 0 55 0 55 95 91 c53
50 100 91 105 91 20 0 9 45 -27 109 -32 57 -37 76 -39 139 -2 63 -5 76 -24 89
-35 24 -23 62 33 103 43 32 47 39 47 76 0 27 -8 51 -25 74 -20 27 -25 46 -25
92 l0 58 -42 22 c-38 19 -65 23 -234 29 -129 5 -212 13 -252 24 -54 16 -62 16
-90 1 -32 -17 -89 -21 -108 -8 -16 11 -34 48 -34 71 0 18 -6 21 -37 20 -21 0
-71 -9 -112 -20z"/>
<path d="M3157 3823 c1 -38 11 -76 29 -110 29 -58 27 -69 -15 -78 -16 -3 -32
-13 -35 -21 -7 -18 -63 -18 -96 1 -26 15 -96 20 -125 9 -14 -6 -15 -17 -9 -76
l7 -69 -40 -36 -41 -37 26 -38 25 -39 -21 -22 c-12 -13 -22 -31 -22 -40 0 -20
-37 -47 -65 -47 -18 0 -22 -10 -33 -78 -16 -105 -15 -133 8 -162 24 -30 25
-44 5 -74 -14 -21 -14 -27 5 -67 11 -24 20 -51 20 -60 0 -21 87 -89 114 -89
20 0 106 -25 136 -40 23 -11 23 -37 0 -62 -32 -34 -47 -68 -55 -123 -4 -28 -9
-58 -12 -69 -5 -17 0 -18 58 -12 35 3 82 8 104 12 26 4 55 0 85 -11 25 -10 58
-17 75 -16 16 0 40 -7 53 -15 22 -15 27 -14 57 1 19 11 42 15 56 12 79 -20 81
-20 122 4 36 21 55 24 130 23 l88 0 -7 43 c-5 34 -3 48 11 63 10 11 24 20 32
20 7 0 16 7 20 15 3 9 23 25 44 36 22 11 39 23 39 27 0 8 -61 54 -132 102 -35
23 -68 79 -68 115 0 8 -9 29 -20 47 -36 59 -29 73 45 93 36 9 81 28 100 41 54
36 159 75 196 72 34 -3 34 -2 33 37 -1 22 -8 60 -17 85 -9 25 -23 81 -33 125
-11 56 -24 88 -41 107 -20 21 -24 32 -18 55 17 65 17 155 0 200 -18 46 -43 63
-91 63 -28 0 -33 30 -9 50 17 14 20 40 5 40 -5 0 -24 -9 -42 -20 -20 -12 -51
-20 -76 -20 -46 0 -75 -15 -145 -77 -26 -23 -47 -33 -71 -33 -54 0 -67 31 -41
94 7 17 5 18 -21 12 -79 -18 -102 -18 -128 -1 -18 12 -26 26 -26 45 0 27 -2
28 -75 39 -108 16 -101 19 -98 -46z"/>
<path d="M2735 3565 c-5 -2 -21 -6 -35 -9 -14 -3 -36 -15 -49 -27 -19 -18 -22
-28 -16 -57 10 -54 -35 -72 -77 -30 -26 26 -47 16 -63 -31 -6 -18 -20 -43 -31
-54 -28 -30 -44 -61 -44 -87 0 -31 -35 -77 -81 -106 -21 -13 -39 -29 -39 -34
0 -26 132 0 169 34 10 9 28 16 41 16 24 0 135 -66 181 -107 l26 -24 7 53 c4
29 8 71 9 93 2 39 3 40 41 45 24 3 42 12 47 23 5 9 14 25 19 35 22 37 21 43
-4 73 -14 17 -26 34 -26 39 0 5 15 18 33 29 39 24 60 62 51 95 -4 18 -15 25
-42 30 -39 6 -100 7 -117 1z"/>
<path d="M6826 3353 c-47 -3 -78 -10 -95 -23 -20 -14 -44 -18 -99 -18 -63 1
-77 -3 -112 -27 -53 -36 -62 -49 -70 -93 -5 -32 -9 -37 -30 -34 -14 2 -56 5
-95 6 -41 1 -82 8 -100 18 -17 8 -43 14 -60 11 -16 -2 -41 0 -55 5 -16 6 -31
5 -42 -1 -12 -8 -31 -7 -71 6 -29 9 -74 17 -98 17 -26 0 -61 9 -84 21 -32 18
-63 22 -165 27 l-126 5 -47 -42 c-28 -24 -58 -41 -73 -41 -13 0 -24 -3 -24 -7
0 -3 15 -34 34 -67 47 -86 52 -112 24 -136 -13 -11 -63 -57 -111 -102 l-88
-82 7 -52 c6 -48 4 -54 -30 -98 -38 -50 -43 -74 -25 -108 13 -24 67 -48 111
-48 41 0 176 -26 245 -47 46 -14 55 -14 75 -1 13 8 47 17 76 20 34 3 63 13 80
27 40 33 100 58 169 72 l62 13 54 -37 c29 -20 63 -37 75 -37 32 0 87 -53 101
-98 8 -22 35 -68 61 -103 48 -64 77 -136 61 -152 -4 -4 -36 0 -71 10 -60 16
-63 16 -76 -2 -8 -10 -14 -31 -14 -45 0 -15 -19 -52 -45 -88 -25 -34 -45 -64
-45 -67 0 -3 11 -10 25 -15 18 -7 36 -4 69 11 35 15 50 17 65 9 27 -14 31 -13
31 9 0 11 17 32 38 48 53 40 56 44 95 104 19 30 41 60 48 65 25 19 117 44 163
44 77 0 92 -16 61 -64 -14 -21 -14 -25 1 -37 14 -11 60 -14 224 -12 201 1 208
2 246 25 65 41 80 47 153 63 39 8 88 22 108 31 21 9 70 27 108 39 66 22 70 25
70 53 0 24 11 38 60 77 l60 47 67 -5 67 -4 17 43 c15 39 15 44 0 65 -17 25
-22 59 -8 59 5 0 17 6 27 14 19 14 19 15 -4 33 l-23 19 26 31 c14 17 26 34 26
37 0 24 -227 96 -305 96 -28 0 -41 8 -77 50 -45 53 -66 59 -108 35 -35 -20
-69 -18 -107 4 -17 11 -51 21 -75 23 -42 3 -43 4 -48 43 -6 44 -33 91 -61 105
-10 6 -36 10 -58 10 -37 0 -44 5 -72 42 -24 35 -29 49 -24 75 3 18 1 51 -5 72
-9 34 -16 42 -48 51 -20 5 -39 9 -42 8 -3 -1 -36 -4 -74 -5z"/>
<path d="M2465 3145 c-55 -34 -137 -52 -170 -37 -21 10 -33 8 -65 -8 -22 -11
-40 -23 -40 -26 0 -3 7 -19 16 -35 10 -21 20 -29 31 -25 8 4 31 -6 51 -23 21
-15 56 -38 80 -50 30 -15 48 -33 58 -57 17 -40 22 -41 57 -14 33 26 57 26 57
-1 0 -31 18 -59 39 -59 9 0 28 -11 41 -25 34 -36 47 -31 55 21 4 32 16 56 41
82 19 20 34 41 34 47 0 6 -12 35 -27 65 -23 45 -41 64 -105 107 -43 28 -86 54
-95 57 -10 3 -36 -6 -58 -19z"/>
<path d="M2066 3039 c-21 -25 -26 -41 -26 -87 -1 -85 -24 -106 -130 -118 -72
-7 -96 -22 -105 -64 -10 -46 -38 -64 -90 -57 -52 8 -118 39 -137 65 -20 28
-34 33 -62 21 -34 -16 -39 -36 -17 -67 33 -47 46 -106 31 -143 -13 -31 -14
-31 -64 -25 -67 9 -77 9 -102 1 -16 -5 -30 2 -55 25 -29 27 -39 30 -69 24 -19
-3 -64 -9 -100 -13 -83 -8 -114 -25 -105 -54 4 -12 10 -42 14 -67 6 -43 8 -46
51 -57 25 -7 86 -26 136 -43 50 -16 101 -30 113 -30 53 0 101 -44 101 -92 0
-39 37 -82 97 -113 l58 -30 7 -70 c4 -47 2 -88 -8 -126 -8 -31 -14 -84 -14
-116 0 -67 -32 -204 -56 -241 -9 -13 -14 -25 -12 -27 18 -17 266 -125 286
-125 17 0 34 10 48 27 l21 27 49 -31 c53 -34 186 -63 288 -63 l55 0 -6 53 c-5
47 -2 56 22 85 66 79 208 76 411 -8 42 -18 84 -6 84 23 0 53 11 66 65 82 29 8
64 15 78 15 19 0 28 7 35 29 13 36 8 41 -38 41 -53 0 -78 30 -62 73 11 29 10
34 -18 62 -34 35 -39 65 -12 65 11 0 27 9 38 21 15 17 16 23 5 41 -7 11 -11
36 -10 56 2 38 -22 105 -42 117 -6 4 -21 -2 -33 -14 -32 -30 -46 -26 -46 12 0
43 24 85 66 120 19 16 41 44 48 62 10 23 25 37 50 46 23 8 38 21 41 34 31 156
38 176 66 206 29 31 30 49 2 49 -8 0 -29 6 -46 14 -18 8 -49 17 -69 21 -21 3
-51 17 -67 31 -37 31 -80 44 -147 44 -41 0 -55 5 -73 24 -13 14 -33 26 -44 28
-18 3 -37 26 -50 62 -2 6 -14 2 -27 -7 -37 -26 -59 -21 -75 17 -9 21 -26 38
-46 47 -18 7 -52 28 -76 46 -23 18 -49 30 -57 27 -15 -6 -56 40 -56 62 0 10
-14 14 -44 14 -37 0 -48 -5 -70 -31z"/>
<path d="M3958 3030 c-35 -14 -77 -35 -93 -47 -17 -12 -57 -29 -90 -39 -33 -9
-64 -20 -68 -24 -4 -4 1 -22 12 -41 11 -19 25 -54 31 -79 15 -57 17 -59 112
-126 43 -30 82 -62 85 -70 7 -19 97 -19 116 1 9 8 18 28 22 45 4 19 13 30 24
30 33 0 110 -28 137 -49 32 -25 107 -29 151 -7 15 8 46 19 68 25 28 7 61 30
107 74 l66 64 -19 30 c-16 26 -29 32 -70 38 -42 6 -52 11 -60 33 -6 15 -16 30
-22 34 -22 14 -79 9 -92 -9 -19 -25 -64 -7 -90 36 -14 23 -42 43 -95 69 -93
44 -145 47 -232 12z"/>
<path d="M2706 2849 c-9 -13 -16 -38 -16 -56 0 -32 1 -33 41 -33 40 0 41 1 34
28 -3 15 -15 40 -24 56 l-18 28 -17 -23z"/>
<path d="M1138 2843 c-25 -3 -38 -9 -38 -19 0 -15 35 -11 73 8 9 5 23 6 29 2
7 -4 8 -3 4 4 -4 7 -13 11 -19 10 -7 -1 -29 -3 -49 -5z"/>
<path d="M1155 2756 l-39 -13 32 -11 c23 -8 32 -17 32 -32 0 -12 3 -20 8 -18
4 3 22 11 40 18 17 8 32 21 32 30 0 9 5 21 12 28 16 16 -62 15 -117 -2z"/>
<path d="M4587 2717 c-60 -61 -93 -81 -150 -91 -58 -11 -67 -40 -31 -106 16
-29 38 -58 49 -65 51 -33 179 -29 190 5 7 22 46 37 118 46 61 8 78 16 133 61
26 20 52 33 70 33 31 0 120 -25 138 -38 6 -4 23 -13 38 -20 26 -11 26 -10 21
21 -4 25 2 41 27 75 17 24 30 45 28 46 -2 1 -19 7 -38 13 -19 7 -55 19 -79 28
-42 15 -230 29 -375 27 -33 -1 -65 3 -72 9 -9 8 -27 -4 -67 -44z"/>
<path d="M4089 2622 c-18 -43 -48 -56 -111 -45 -37 5 -85 -14 -123 -49 -11
-10 -29 -24 -40 -32 -15 -11 -19 -26 -20 -67 0 -54 0 -54 -30 -51 -91 9 -136
4 -186 -22 -50 -27 -52 -27 -97 -12 -57 20 -54 20 -82 -4 -13 -12 -30 -18 -37
-15 -7 3 -20 8 -28 11 -11 4 -13 2 -9 -9 3 -9 21 -21 41 -28 19 -6 39 -21 45
-34 6 -13 23 -29 39 -35 25 -11 35 -9 76 12 27 14 72 27 102 30 52 5 53 5 67
-28 17 -41 18 -41 89 -48 33 -4 101 -14 151 -22 87 -16 91 -16 130 4 22 11 58
23 79 27 100 16 143 55 161 145 10 52 12 55 43 58 19 2 34 10 37 20 3 9 9 24
14 33 6 11 1 32 -16 64 -13 27 -24 54 -24 60 0 7 -18 11 -47 11 -38 -1 -56 5
-84 26 -21 16 -54 30 -80 34 -44 5 -44 5 -60 -34z"/>
<path d="M4894 2545 c-32 -24 -69 -45 -81 -45 -46 0 -126 -23 -143 -40 -31
-31 -57 -40 -117 -40 -39 0 -72 7 -98 20 -22 11 -40 20 -41 20 -1 0 -5 -12 -9
-27 -8 -33 -21 -43 -56 -43 -25 0 -27 -4 -34 -57 -4 -41 -13 -63 -27 -74 -20
-16 -20 -16 6 -57 14 -23 30 -42 34 -42 5 0 38 -25 75 -56 92 -75 122 -78 276
-30 108 34 118 36 167 25 94 -21 139 14 232 181 53 95 63 107 115 138 31 19
57 40 57 47 0 14 -26 28 -155 83 -116 50 -131 50 -201 -3z"/>
<path d="M5950 2549 c-19 -6 -41 -12 -47 -14 -14 -5 48 -120 107 -200 61 -82
83 -132 75 -174 -12 -58 -9 -134 4 -160 l13 -23 28 33 c30 36 55 86 65 132 8
37 27 43 93 29 31 -7 58 -10 60 -7 10 10 -11 57 -48 106 -22 30 -54 82 -70
117 -30 61 -73 102 -111 102 -8 0 -38 16 -65 35 -53 38 -52 38 -104 24z"/>
<path d="M5800 2485 c-36 -30 -49 -35 -95 -35 -33 0 -57 -5 -64 -14 -19 -23
-59 -28 -84 -11 -23 15 -114 32 -221 42 -47 5 -60 2 -68 -10 -4 -9 -36 -33
-69 -53 -53 -33 -65 -47 -96 -108 -55 -110 -92 -160 -139 -192 -24 -16 -44
-33 -44 -37 0 -5 11 -23 24 -40 13 -18 26 -44 30 -59 4 -17 16 -30 37 -37 29
-10 31 -13 27 -53 l-3 -43 55 -7 c100 -15 119 -25 126 -67 4 -26 17 -46 43
-67 45 -39 116 -52 292 -56 123 -3 127 -2 165 24 58 40 87 48 172 48 88 0 148
-14 177 -40 11 -10 32 -22 48 -25 27 -7 27 -7 27 41 0 57 29 128 58 143 12 6
32 11 45 11 54 0 76 67 31 96 -24 16 -28 16 -60 1 -71 -34 -112 -17 -136 57
-21 60 -23 118 -7 148 17 32 -3 85 -65 172 -30 41 -71 105 -91 141 -24 43 -43
65 -55 65 -10 0 -37 -16 -60 -35z"/>
<path d="M3105 2380 c-11 -5 -44 -9 -74 -9 -73 -1 -145 -34 -165 -75 -8 -17
-33 -49 -55 -70 -37 -36 -70 -100 -58 -112 2 -3 12 2 20 11 21 21 66 20 73 -2
3 -10 10 -25 15 -33 5 -8 12 -23 15 -32 5 -15 18 -18 70 -18 l64 0 31 55 c17
30 36 55 43 55 7 0 30 -25 52 -55 21 -30 43 -53 49 -51 5 1 13 19 16 39 3 21
9 41 13 45 4 4 30 6 58 5 42 -2 51 1 55 17 5 20 29 34 43 25 5 -3 18 8 30 25
23 33 22 34 -45 31 -49 -3 -75 21 -84 77 -5 30 -13 40 -42 54 -46 22 -99 29
-124 18z"/>
<path d="M3286 2341 c-11 -17 7 -72 28 -86 22 -14 86 -9 86 6 0 6 -20 18 -45
29 -25 11 -45 26 -45 34 0 18 -16 30 -24 17z"/>
<path d="M3545 2234 c-29 -18 -51 -24 -80 -22 -35 3 -41 0 -53 -24 -9 -19 -21
-28 -37 -28 -15 0 -26 -7 -30 -20 -5 -17 -15 -20 -60 -20 -57 0 -65 -5 -74
-54 -5 -22 -13 -32 -29 -34 -17 -3 -29 9 -58 53 -19 31 -38 55 -40 53 -2 -3
-14 -24 -27 -48 -28 -53 -36 -58 -119 -65 -74 -7 -83 -18 -52 -63 14 -21 14
-25 -1 -49 -9 -14 -26 -28 -36 -30 -26 -7 -24 -25 6 -53 22 -21 25 -30 19 -67
-6 -40 -4 -43 21 -53 14 -5 40 -10 57 -10 29 0 30 -1 25 -35 -6 -34 -5 -35 21
-29 15 4 48 28 73 55 44 47 48 49 103 49 108 0 210 -78 242 -186 20 -69 60
-123 131 -176 32 -23 95 -77 139 -119 68 -64 91 -79 143 -95 41 -12 79 -33
112 -61 28 -23 69 -51 92 -61 24 -11 55 -34 71 -53 16 -19 42 -41 59 -49 21
-10 34 -26 40 -49 4 -18 16 -45 25 -59 23 -35 22 -129 -1 -162 -19 -28 -23
-95 -5 -106 15 -10 43 26 64 84 11 31 34 62 68 94 l51 46 -43 42 c-35 35 -42
48 -42 80 0 78 94 96 189 35 30 -19 58 -32 63 -29 4 3 8 18 8 34 0 39 -59 85
-209 165 -93 50 -116 66 -132 97 -17 33 -24 37 -66 43 -101 12 -187 84 -229
191 -47 119 -67 147 -134 192 -96 63 -114 84 -112 129 7 191 4 178 58 211 6 4
14 50 17 104 l5 96 -43 11 c-36 9 -44 16 -50 41 -6 28 -9 30 -53 30 -32 -1
-60 -8 -87 -26z"/>
<path d="M4210 2204 c-19 -7 -45 -13 -58 -13 -12 -1 -41 -10 -65 -20 -67 -30
-73 -31 -129 -17 -29 8 -79 17 -110 21 l-58 6 0 -94 0 -94 49 5 c42 4 51 1 60
-16 10 -19 19 -20 107 -17 96 4 97 4 111 34 9 17 24 33 35 36 11 4 21 19 25
36 4 22 20 39 59 64 59 38 59 38 44 66 -12 22 -21 22 -70 3z"/>
<path d="M4247 2126 c-31 -21 -49 -40 -53 -59 -4 -16 -18 -35 -31 -44 -13 -9
-31 -29 -39 -46 -15 -27 -19 -29 -56 -23 -56 9 -161 -12 -154 -31 4 -8 6 -18
6 -23 0 -4 24 -11 52 -14 59 -8 88 -28 88 -61 0 -45 143 -235 177 -235 28 0
81 -31 86 -51 6 -21 69 -52 126 -63 l34 -6 -54 60 c-30 33 -80 87 -111 119
-35 35 -60 71 -64 89 -3 16 -21 45 -40 63 -56 55 -39 107 32 96 24 -4 44 -1
60 10 14 9 34 13 48 9 13 -3 76 -10 140 -16 92 -8 128 -16 167 -36 28 -14 52
-24 54 -22 2 2 0 23 -5 47 -5 30 -16 51 -33 63 -14 10 -31 34 -37 53 l-11 33
-54 -5 c-78 -8 -121 3 -168 45 -42 37 -104 83 -109 81 -2 -1 -24 -15 -51 -33z"/>
<path d="M4725 2076 c-62 -20 -70 -26 -73 -50 -3 -20 5 -35 31 -59 45 -43 71
-155 61 -267 -6 -68 -10 -78 -42 -112 l-35 -37 58 -66 c32 -37 70 -71 84 -76
14 -6 48 -24 74 -41 l49 -31 86 16 c48 9 106 20 130 23 35 6 42 10 42 30 0 37
17 72 39 79 29 9 26 28 -8 67 -56 65 -64 99 -30 141 15 20 18 35 14 60 -7 38
-32 50 -132 63 l-53 7 0 46 c0 43 -3 48 -30 58 -18 7 -30 18 -30 30 0 10 -16
41 -35 69 -27 39 -43 53 -68 57 -18 3 -39 8 -47 10 -8 3 -46 -5 -85 -17z"/>
<path d="M4307 1889 c-11 -6 -32 -9 -48 -5 -64 13 -80 -30 -29 -79 17 -16 34
-42 38 -57 7 -29 68 -99 222 -256 l94 -97 6 35 c9 50 36 96 89 153 l46 49 0
92 0 91 -54 29 c-41 22 -75 31 -135 36 -45 5 -110 11 -146 14 -41 4 -72 2 -83
-5z"/>
<path d="M5206 1685 c-26 -26 -19 -61 24 -117 41 -54 51 -88 27 -88 -23 0 -44
-33 -50 -76 -4 -37 -1 -45 39 -90 24 -27 44 -52 44 -56 0 -5 8 -16 18 -26 15
-15 30 -17 90 -14 44 3 99 -2 140 -11 145 -34 198 -32 204 6 2 15 14 25 35 31
21 7 33 17 35 30 4 27 80 42 147 29 72 -14 90 -2 52 36 -11 11 -25 38 -32 61
-12 39 -11 42 17 73 17 18 43 49 58 70 15 21 39 43 52 49 34 16 30 26 -18 49
-24 12 -56 28 -73 37 -22 12 -56 17 -126 17 -94 0 -98 -1 -144 -34 -29 -21
-63 -35 -89 -38 -73 -9 -347 16 -370 32 -12 8 -31 22 -42 30 -20 14 -23 14
-38 0z"/>
<path d="M483 1575 c-19 -24 -39 -37 -63 -41 -70 -11 -79 -14 -85 -34 -5 -15
3 -32 29 -60 36 -40 42 -64 37 -134 l-3 -29 35 22 c44 27 55 27 67 -3 7 -20
17 -24 72 -28 35 -3 68 -2 73 2 34 25 105 15 105 -15 0 -9 11 -20 25 -25 14
-5 25 -16 25 -24 0 -14 -45 -57 -90 -87 -23 -15 -23 -18 -12 -56 15 -51 15
-106 0 -121 -6 -6 -11 -31 -10 -56 2 -43 1 -44 -33 -50 -19 -4 -35 -12 -35
-19 0 -7 16 -32 35 -56 19 -24 35 -46 35 -48 0 -3 -13 -18 -30 -33 -16 -15
-30 -33 -30 -39 0 -7 16 -27 35 -46 39 -39 37 -60 -4 -68 -36 -7 -59 -56 -45
-95 7 -21 18 -28 53 -34 48 -8 81 -33 113 -88 53 -86 127 -127 137 -75 5 28
19 35 72 35 30 0 62 9 90 24 39 21 62 25 193 31 l150 7 28 32 c64 72 80 84
122 95 53 13 66 28 73 83 4 37 13 51 61 95 l56 51 -12 59 c-7 33 -12 72 -12
88 0 47 38 112 95 162 33 28 57 58 61 76 8 37 50 62 128 76 40 7 78 22 111 45
27 19 64 41 82 50 38 19 53 43 53 85 l0 31 -67 0 c-38 0 -95 5 -128 10 -50 8
-61 7 -68 -6 -7 -12 -18 -14 -47 -9 -21 3 -56 2 -78 -4 -46 -13 -87 -2 -96 26
-4 11 -59 43 -143 83 -189 90 -233 96 -669 103 -321 5 -343 6 -382 26 -57 29
-77 27 -109 -14z"/>
<path d="M2833 1589 c-23 -7 -33 -16 -33 -29 0 -11 0 -23 0 -27 0 -16 18 -7
60 30 45 39 39 45 -27 26z"/>
<path d="M4625 1478 c-14 -29 -25 -60 -25 -70 0 -14 97 -106 103 -97 2 2 10
20 20 39 9 19 22 43 29 52 10 14 4 25 -36 72 -26 31 -52 56 -57 56 -6 0 -21
-24 -34 -52z"/>
<path d="M3183 1416 c-47 -45 -53 -56 -53 -91 0 -55 38 -120 70 -120 38 0 50
36 50 152 0 56 -3 104 -7 106 -5 3 -32 -19 -60 -47z"/>
<path d="M1862 1420 c-7 -12 -23 -20 -38 -20 -19 0 -25 -4 -22 -17 3 -16 16
-18 101 -18 53 0 97 3 97 7 0 4 -20 16 -44 26 -24 11 -47 25 -50 31 -11 17
-30 13 -44 -9z"/>
<path d="M4752 1373 c-35 -50 -35 -67 -2 -91 37 -28 38 -45 3 -95 -22 -32 -27
-50 -27 -105 -1 -62 2 -70 37 -116 21 -27 45 -62 53 -77 19 -37 28 -36 44 1 7
17 21 35 31 41 11 5 19 16 19 24 0 7 11 26 24 42 12 15 29 39 36 52 11 22 9
26 -19 48 -50 40 -64 77 -57 150 4 34 9 68 11 75 6 14 -92 78 -118 78 -9 0
-24 -12 -35 -27z"/>
<path d="M5052 1345 c-68 -13 -127 -26 -130 -30 -4 -3 -8 -38 -10 -76 -4 -71
-4 -71 34 -111 38 -39 40 -40 99 -36 46 3 66 9 83 26 12 12 34 22 50 22 15 0
51 14 80 30 l52 31 -22 32 c-13 17 -40 51 -60 74 -21 24 -38 47 -38 53 0 12
11 13 -138 -15z"/>
<path d="M440 1285 c-7 -8 -18 -15 -25 -15 -10 0 -13 -29 -12 -127 2 -117 -1
-135 -26 -208 -16 -44 -42 -102 -58 -129 -17 -26 -29 -58 -27 -69 2 -12 20
-33 42 -47 61 -42 67 -59 64 -195 l-3 -120 55 -3 c30 -2 78 1 106 8 l52 11 -5
39 c-9 61 3 89 44 106 l36 15 -32 33 c-38 39 -39 69 -6 102 14 14 25 27 25 29
0 3 -16 23 -36 45 -42 47 -41 71 4 85 29 8 32 13 32 47 0 21 8 50 17 64 14 22
15 32 5 70 -18 67 -15 91 14 111 14 10 39 29 56 42 29 24 29 25 9 36 -12 6
-28 21 -37 33 -17 25 -51 29 -80 7 -18 -13 -36 -13 -131 1 -20 3 -34 12 -38
24 -8 24 -28 26 -45 5z"/>
<path d="M5778 1233 c-10 -2 -18 -13 -18 -24 0 -36 -41 -44 -143 -29 -147 21
-286 24 -305 6 -20 -18 -122 -66 -140 -66 -7 0 -25 -9 -40 -20 -16 -11 -46
-20 -74 -22 -27 -1 -51 -4 -56 -7 -4 -3 -27 -39 -51 -78 -24 -40 -48 -73 -53
-73 -5 0 -16 -17 -25 -37 -12 -30 -12 -38 -2 -42 7 -2 25 -17 40 -34 26 -29
39 -65 39 -113 0 -16 8 -28 25 -36 21 -9 33 -8 66 9 33 17 47 19 79 11 41 -11
86 -50 76 -67 -4 -6 -31 -8 -70 -4 -98 9 -130 -20 -86 -77 11 -14 20 -41 20
-62 0 -42 41 -98 71 -98 23 0 72 -24 108 -51 13 -11 28 -19 32 -19 14 0 11 44
-6 83 -8 20 -15 46 -15 57 0 19 4 20 53 14 44 -5 55 -3 60 10 8 20 -28 46 -66
46 -24 0 -28 4 -25 23 2 17 11 23 37 25 18 2 38 -1 44 -7 16 -16 41 -14 82 6
28 13 35 22 35 45 0 41 -40 78 -84 78 -19 0 -38 -4 -41 -10 -10 -16 -51 -11
-68 8 -24 26 -21 39 13 57 49 25 40 50 -52 154 -51 59 -60 94 -29 111 30 16
51 12 83 -15 30 -25 54 -30 97 -18 21 5 22 10 17 44 -8 51 0 66 41 80 31 10
39 9 64 -10 l30 -22 30 25 c47 39 90 43 143 12 l45 -26 15 22 c9 12 16 28 16
34 0 6 9 19 20 29 20 18 25 41 14 69 -6 16 -14 18 -46 9z"/>
<path d="M3157 1089 c-21 -11 -48 -19 -60 -19 -58 5 -59 -4 -16 -86 29 -56 30
-63 24 -135 -9 -104 18 -158 60 -119 11 10 36 25 55 32 19 8 40 21 46 29 6 8
14 75 17 151 6 133 5 138 -16 153 -29 20 -64 18 -110 -6z"/>
<path d="M2200 872 c-39 -19 -48 -47 -26 -75 20 -26 50 -14 75 29 38 64 20 81
-49 46z"/>
<path d="M4040 564 c-61 -14 -91 -14 -216 2 -34 5 -46 2 -70 -20 l-29 -26 34
-30 c19 -16 70 -41 113 -56 71 -23 102 -42 162 -96 22 -20 27 -21 50 -12 13 5
16 22 16 78 0 63 4 78 29 118 24 38 27 47 14 52 -19 8 -26 7 -103 -10z"/>
<path d="M5378 106 c-10 -7 -18 -16 -18 -19 0 -3 44 -20 98 -38 107 -34 172
-35 264 -4 63 22 67 32 15 33 -238 6 -266 8 -285 25 -22 20 -50 21 -74 3z"/>
</g>
</svg>
