<svg width="832" height="820" viewBox="0 0 832 820" fill="none" xmlns="http://www.w3.org/2000/svg">
<ellipse cx="416" cy="410" rx="416" ry="410" fill="#D9D9D9"/>
<path d="M399.084 17.3336C373.488 18.4468 356.045 20.3639 337.78 24.1363C335.189 24.631 331.903 25.3113 330.513 25.6205C329.122 25.8679 326.594 26.4244 324.825 26.7955C323.118 27.2284 320.653 27.785 319.453 28.0323C316.166 28.7745 307.761 31.0008 302.705 32.485C295.247 34.6495 276.54 40.7719 273.001 42.1943C272.306 42.5035 269.02 43.8022 265.733 45.039C262.447 46.3377 258.339 48.0074 256.57 48.7496C254.863 49.5535 252.019 50.7903 250.25 51.5325C242.097 55.0575 221.178 65.5707 212.646 70.3944C210.371 71.6931 207.527 73.2391 206.326 73.9194C203.103 75.7747 187.177 86.2261 182.943 89.3182C181.742 90.184 176.875 93.709 172.199 97.1722C167.522 100.573 163.098 103.913 162.403 104.531C161.708 105.15 159.685 106.758 157.979 108.118C156.209 109.479 153.997 111.334 152.923 112.262C151.912 113.251 149.7 115.045 148.057 116.343C139.525 122.96 109.505 154.067 100.152 165.941C98.9509 167.487 97.8133 168.848 97.6237 169.033C96.8021 169.775 86.1846 183.999 83.5303 187.895C81.8871 190.245 80.3071 192.533 79.9279 192.966C79.6119 193.399 79.2959 193.832 79.2959 194.017C79.2959 194.203 77.1471 197.542 74.556 201.5C71.9648 205.396 69.816 208.798 69.816 208.983C69.816 209.169 69.3104 210.096 68.6153 210.962C67.4777 212.632 65.9609 215.229 61.4738 223.145C58.9458 227.721 49.2131 246.893 47.4435 250.789C45.358 255.551 44.6628 257.22 43.2724 260.56C42.514 262.415 41.566 264.641 41.25 265.507C40.302 267.734 39.7332 269.218 38.8485 271.691C38.4061 272.866 37.8373 274.412 37.5845 275.093C36.3837 277.876 32.5285 288.884 32.5285 289.564C32.5285 289.935 32.2757 290.739 31.9597 291.357C31.6438 291.914 31.0118 293.645 30.6326 295.192C30.1902 296.738 29.6214 298.655 29.3054 299.521C28.3574 302.365 23.7439 319.31 22.4799 324.876C15.4648 355.302 13 377.999 13 411.764C13 434.522 14.0744 450.911 16.7919 468.659C17.6135 473.978 20.3311 488.758 21.1527 492.283C21.5319 493.767 22.1007 496.241 22.4799 497.849C22.7959 499.519 23.3647 501.869 23.7439 503.106C24.0599 504.404 24.5654 506.507 24.8814 507.744C26.2086 512.939 29.5582 524.379 31.1382 528.956C31.6438 530.502 32.2757 532.543 32.5285 533.594C33.0341 535.449 36.5733 545.53 37.5845 547.818C37.8373 548.498 38.4061 550.044 38.8485 551.219C39.67 553.507 40.3652 555.301 41.3764 557.527C41.6924 558.331 42.5772 560.495 43.3356 562.351C45.7372 568.597 47.6331 572.617 53.9531 585.232C62.1689 601.497 67.1617 610.217 76.5784 624.379C78.7271 627.718 80.5599 630.687 80.5599 630.996C80.5599 631.243 80.8127 631.614 81.0655 631.738C81.3815 631.8 82.8983 633.841 84.5414 636.252C89.3446 643.302 102.111 659.876 105.397 663.277C105.84 663.71 107.862 666.06 109.884 668.41C117.847 677.563 133.71 693.58 143.19 702.115C147.172 705.701 150.521 708.732 150.711 708.917C150.901 709.103 152.291 710.278 153.871 711.515C155.451 712.751 157.473 714.421 158.421 715.225C160.696 717.204 173.21 726.604 180.099 731.552C186.482 736.19 207.274 749.733 207.906 749.733C208.159 749.733 209.107 750.228 209.992 750.908C216.817 755.546 249.491 771.502 262.257 776.449C264.027 777.129 266.302 777.995 267.313 778.49C277.615 782.881 305.738 791.724 317.557 794.322C319.137 794.631 321.538 795.249 322.929 795.558C324.319 795.929 326.594 796.424 327.985 796.672C329.375 796.981 334.241 797.97 338.728 798.898C348.461 800.877 356.424 802.052 369.696 803.536C396.872 806.566 437.256 806.505 462.915 803.536C477.703 801.804 484.023 800.815 493.566 798.898C498.117 797.97 502.92 796.981 504.31 796.672C505.701 796.424 507.976 795.929 509.366 795.558C510.757 795.249 513.158 794.631 514.738 794.322C528.073 791.415 556.323 782.324 568.584 777.006C570.227 776.264 571.744 775.707 571.87 775.707C572.06 775.707 574.082 774.841 576.484 773.79C597.403 764.452 612.823 756.66 624.705 749.548C626.98 748.187 629.381 746.765 630.077 746.394C633.742 744.415 658.074 727.717 659.464 726.233C659.654 726.048 660.791 725.182 661.992 724.378C663.193 723.574 664.331 722.708 664.52 722.523C664.71 722.337 665.974 721.348 667.364 720.296C670.334 718.194 670.461 718.07 681.9 708.422C694.161 698.157 715.079 677.13 725.95 664.329C727.782 662.164 729.426 660.247 729.615 660.062C730.184 659.567 736.251 651.96 738.969 648.312C740.422 646.456 741.876 644.539 742.318 644.106C743.519 642.746 760.077 618.38 760.456 617.39C760.646 616.896 761.784 614.979 762.921 613.185C764.122 611.392 765.955 608.361 767.029 606.382C768.104 604.465 769.81 601.435 770.821 599.765C772.97 595.931 783.398 575.399 785.104 571.627C785.736 570.081 787.695 565.505 789.338 561.423C790.982 557.341 792.562 553.445 792.878 552.765C793.699 550.724 797.681 539.964 798.502 537.305C798.945 535.944 799.513 534.274 799.766 533.594C800.019 532.914 800.841 530.378 801.599 528.028C802.294 525.616 803.495 521.72 804.253 519.37C805.012 516.958 805.833 513.99 806.149 512.691C806.465 511.454 806.971 509.352 807.35 508.053C808.93 501.869 809.499 499.519 811.458 490.614C813.797 479.791 815.692 468.536 816.83 458.765C818.789 441.696 819.042 435.636 819.042 411.455C819.042 387.275 818.789 381.214 816.83 364.146C815.313 350.54 812.469 335.08 809.246 322.402C808.93 321.227 808.361 318.815 807.919 317.146C807.54 315.414 806.339 311.147 805.328 307.56C804.253 303.973 803.242 300.201 802.926 299.211C802.294 296.799 800.398 290.924 799.766 289.317C799.513 288.636 798.945 286.966 798.565 285.606C797.744 283.009 794.963 275.402 794.078 273.237C793.826 272.557 791.93 267.981 789.907 263.034C784.535 249.799 783.651 247.758 776.635 234.277C770.063 221.475 769.683 220.857 764.754 212.756C763.174 210.096 761.847 207.623 761.847 207.313C761.847 207.004 761.594 206.757 761.215 206.757C760.899 206.757 760.583 206.448 760.583 206.077C760.583 205.087 745.857 183.504 739.727 175.526C733.534 167.487 728.162 160.932 725.381 157.901C724.307 156.726 722.727 154.871 721.968 153.882C721.147 152.83 720.072 151.594 719.503 151.099C718.998 150.604 715.585 146.955 711.919 143.059C702.566 133.041 691.759 122.713 680.573 113.066C677.223 110.159 666.226 101.625 659.591 96.7393C651.248 90.6169 650.553 90.1221 645.244 86.4116C640.884 83.3195 626.032 73.7957 625.589 73.7957C625.4 73.7957 624.452 73.301 623.567 72.6207C615.604 67.1786 583.309 51.5943 566.561 45.039C563.275 43.8022 559.989 42.5035 559.294 42.2561C548.044 37.8653 523.144 30.3206 512.21 27.9087C510.63 27.5995 508.229 27.0429 506.838 26.6718C505.448 26.3626 503.173 25.8679 501.782 25.6205C500.392 25.3113 497.106 24.631 494.514 24.1363C487.499 22.7139 482.759 21.8481 477.451 21.1678C474.859 20.8586 470.562 20.3021 467.971 19.931C449.453 17.4573 420.571 16.406 399.084 17.3336ZM399.779 32.4232C400.98 32.7943 403.192 33.66 404.772 34.3403C413.746 38.2982 418.549 38.2982 427.523 34.3403C434.096 31.4955 439.91 30.939 445.156 32.7324C449.833 34.2784 454.699 38.8548 454.699 41.5759C454.699 41.9469 453.561 42.4417 452.234 42.6272C448.885 43.1838 447.178 45.039 445.725 50.1101C444.587 54.068 444.208 57.8404 442.691 79.98C441.174 101.439 439.658 111.396 437.13 115.292C436.434 116.467 434.981 118.199 433.906 119.188C432.832 120.239 431.947 121.229 431.947 121.476C431.947 121.724 433.148 121.785 434.665 121.6C443.513 120.487 449.643 113.066 450.97 101.872C451.286 99.0893 451.855 92.4103 452.234 87.03C453.751 64.3957 454.32 58.7681 455.836 52.4601C457.796 44.2969 461.904 38.6074 466.644 37.3087C469.74 36.5048 474.923 36.3811 478.399 37.0613C482.949 37.8653 488.826 41.9469 488.826 44.235C488.826 45.1627 488.321 45.3482 486.109 45.3482C483.391 45.3482 481.306 46.3377 479.22 48.6259C478.588 49.3062 478.083 49.8627 478.083 49.9246C478.083 49.9864 477.64 52.2128 477.071 54.9338C475.934 60.5615 475.112 65.447 474.227 71.4457C473.216 78.5576 472.395 83.876 471.763 87.4011C471.067 91.4208 470.372 97.5432 470.878 95.7498C471.067 95.0695 471.447 93.8945 471.826 93.0906C472.142 92.3484 472.647 91.1116 472.963 90.3077C473.785 88.3906 476.439 80.2274 477.451 76.8879C477.893 75.3418 478.462 73.4247 478.715 72.5589C478.967 71.6931 479.599 69.3431 480.042 67.3023C481.559 60.3141 484.15 55.9233 490.027 50.2957C495.652 44.9153 502.035 42.2561 509.493 42.2561C513.158 42.2561 514.801 42.5653 517.14 43.7404C521.184 45.7193 524.028 48.6259 525.924 52.6456C527.252 55.3667 527.504 56.6654 527.252 59.9431C526.936 64.9523 526.177 65.7562 524.028 63.6536C523.144 62.7878 522.069 62.0457 521.69 62.0457C519.731 62.0457 516.192 64.272 512.905 67.6115C507.976 72.6207 502.161 83.9998 497.358 98.2235C495.399 103.975 493.377 109.664 492.871 110.716C490.406 116.281 489.964 117.085 489.079 118.013C488.574 118.508 488.384 118.941 488.7 118.941C489.395 118.941 494.009 114.302 497.042 110.592C500.834 106.016 506.396 97.4814 508.734 92.905C512.653 85.1129 513.6 83.505 516.381 79.6708C523.017 70.5181 530.664 64.9523 540.587 61.9838C544.252 60.8707 556.007 60.9325 559.673 61.9838C569.026 64.7667 573.64 68.9102 575.409 76.1458C576.547 80.9076 575.536 83.6906 573.387 81.6497C569.532 78.0629 562.769 78.805 556.323 83.5668C553.353 85.7932 544.695 94.7603 537.174 103.48C529.274 112.571 517.14 123.27 514.738 123.27C513.664 123.27 514.043 124.445 515.307 125.125C516.824 125.867 526.114 125.929 528.136 125.187C528.958 124.878 530.727 124.321 532.118 123.888C537.806 122.156 544.568 117.518 551.33 110.716C556.766 105.212 564.665 98.0998 568.141 95.5643C579.264 87.2774 587.859 83.3195 597.529 81.8971C602.522 81.155 610.169 82.0208 614.277 83.7524C621.292 86.7208 634.627 99.584 632.668 101.501C632.478 101.625 631.467 101.439 630.329 101.068C625.147 99.3367 618.385 101.068 611.37 106.016C592.789 119.126 592.094 119.621 582.361 125.991C567.699 135.514 562.833 138.359 555.186 141.946C552.91 142.997 550.572 144.111 550.003 144.358C549.371 144.667 548.36 144.914 547.728 144.914C547.096 144.914 546.338 145.1 546.085 145.347C545.137 146.275 539.512 147.326 535.467 147.388C522.764 147.45 511.768 140.338 507.533 129.392L506.396 126.485L503.805 127.722C498.243 130.443 493.819 131.309 486.235 131.309C479.915 131.309 479.663 131.062 482.001 127.228C483.265 125.125 483.265 125.001 482.127 125.62C480.042 126.671 474.796 128.341 470.499 129.207C466.075 130.134 456.848 130.382 456.342 129.578C456.216 129.33 457.29 127.97 458.744 126.547C461.335 124.135 465.443 117.024 465.443 114.983C465.443 114.364 464.242 115.106 462.156 117.085C457.922 121.043 451.981 124.816 447.684 126.362C443.07 128.032 436.182 128.032 432.263 126.362C430.051 125.434 429.04 125.31 428.471 125.743C426.386 127.413 420.761 128.835 416.147 128.835C411.534 128.835 405.909 127.413 403.824 125.743C403.255 125.31 402.244 125.434 400.032 126.362C395.544 128.217 388.909 128.093 383.789 125.929C380.313 124.507 374.752 121.291 373.804 120.178C373.614 119.992 372.161 118.755 370.518 117.456C367.8 115.354 367.484 115.23 367.484 116.343C367.484 118.57 371.718 125.187 374.878 127.97C375.7 128.65 376.142 129.392 375.953 129.639C375.194 130.382 366.094 130.134 361.796 129.207C357.056 128.217 351.684 126.485 350.61 125.62C349.472 124.754 349.599 126.238 350.736 128.217C352.443 131.124 352.127 131.309 346.06 131.309C340.751 131.309 335.316 130.567 332.409 129.454C331.713 129.207 330.133 128.526 328.806 127.97C325.899 126.671 325.141 126.733 325.141 128.093C325.141 130.258 321.854 135.638 318.568 138.916C314.902 142.565 309.341 145.471 303.527 146.77C295.058 148.687 283.05 145.718 271.105 138.916C270.094 138.297 267.566 136.875 265.607 135.762C261.752 133.659 245.446 123.27 244.878 122.651C244.688 122.466 240.58 119.559 235.714 116.281C230.847 113.004 224.464 108.613 221.557 106.572C213.594 101.006 207.148 99.1511 202.155 101.006C194.761 103.789 206.769 89.6892 215.932 84.9274C221.178 82.1445 229.141 80.9076 235.019 81.8971C249.175 84.1852 262.51 92.3484 279.321 108.984C288.169 117.704 294.299 122.095 300.177 123.888C301.567 124.321 303.337 124.878 304.159 125.187C306.497 126.053 315.787 125.805 317.557 124.816C319.074 124.012 319.074 123.95 317.873 123.517C314.902 122.404 309.278 118.013 303.969 112.695C298.344 107.005 296.385 104.902 288.801 96.3064C283.682 90.5551 277.299 84.2471 274.581 82.3918C269.905 79.0524 263.585 78.4339 260.235 80.9695C259.098 81.8353 257.834 82.33 257.518 82.1445C256.443 81.5261 256.822 75.5273 258.086 72.8063C260.488 67.6733 265.165 64.2101 272.622 61.9838C276.288 60.9325 288.043 60.9325 291.708 61.9838C295.753 63.1589 303.021 66.6838 305.233 68.5391C313.449 75.4655 317.241 80.351 322.739 91.1116C326.721 98.9037 328.364 101.625 332.598 107.191C337.78 114.055 346.502 122.466 342.268 116.591C341.004 114.797 337.464 105.83 335.189 98.8419C334.431 96.4301 333.609 93.9564 333.357 93.2761C328.301 80.1655 323.813 71.8786 319.263 67.426C315.977 64.2101 312.501 62.0457 310.668 62.0457C310.352 62.0457 309.151 62.7878 308.077 63.6536C307.002 64.5812 305.928 65.076 305.675 64.8904C305.486 64.6431 305.17 62.5404 305.043 60.2523C304.664 53.4496 308.014 47.822 314.65 44.0496C317.43 42.5035 318.505 42.2561 322.676 42.2561C330.449 42.2561 336.643 44.8535 342.584 50.6049C348.714 56.5417 350.483 59.8193 353.011 69.5905C354.718 76.3931 357.815 86.5971 358.573 88.0195C358.826 88.5142 359.458 90.2458 359.963 91.8537C360.406 93.5234 361.038 94.8221 361.354 94.8221C361.923 94.8221 361.733 93.2142 360.532 87.4011C359.331 81.3405 358.636 77.0115 358.636 75.1562C358.636 74.105 358.383 72.0023 358.004 70.58C357.688 69.0957 357.119 65.8181 356.677 63.2825C355.729 56.9128 354.275 50.2957 353.58 48.9969C352.695 47.4509 348.967 45.3482 347.071 45.3482C344.859 45.3482 343.468 44.7298 343.468 43.8022C343.468 42.7509 347.26 39.4732 349.915 38.2982C354.844 36.0719 363.123 36.01 367.863 38.2364C371.023 39.6588 374.246 44.6061 375.826 50.2957C377.975 58.2114 378.102 58.9536 380.693 94.5129C381.388 103.542 382.273 108.737 383.347 109.974C383.663 110.283 383.916 111.025 383.916 111.581C383.916 113.251 389.288 118.693 392.321 120.054C394.66 121.167 397.63 121.662 400.221 121.476C400.6 121.414 399.842 120.425 398.515 119.188C397.124 118.013 395.418 115.787 394.66 114.302C392.069 109.046 390.425 96.1827 388.972 69.1575C388.15 54.0062 387.139 48.8114 384.105 44.8535C383.157 43.6166 382.02 42.8745 381.072 42.8745C378.797 42.8745 377.406 41.2667 378.291 39.5969C380.819 34.835 386.57 31.9284 393.775 31.8047C395.924 31.7429 398.578 32.0521 399.779 32.4232ZM200.701 114.612C205.568 115.91 212.899 119.188 218.208 122.466C220.04 123.579 221.684 124.507 221.81 124.507C222 124.507 225.349 126.547 229.268 128.959C238.052 134.463 237.547 134.154 242.097 137.122C244.183 138.421 246.774 140.029 247.911 140.709C248.986 141.328 251.008 142.441 252.335 143.121C259.603 147.203 264.659 149.862 265.165 149.862C265.481 149.862 266.239 150.109 266.871 150.418C271.485 152.707 276.098 154.005 281.723 154.5C284.883 154.747 286.589 155.18 286.589 155.675C286.589 156.912 282.039 160.808 278.12 162.911C268.009 168.229 256.696 167.054 242.982 159.138C241.402 158.211 238.811 156.788 237.231 155.922C235.714 155.057 233.312 153.758 231.922 152.954C230.531 152.15 228.13 150.851 226.613 149.986C225.033 149.12 222.316 147.636 220.609 146.584C201.586 135.576 189.452 131.185 177.887 131.124C171.946 131.124 170.871 131.309 167.585 132.855C165.563 133.783 163.73 134.401 163.54 134.216C162.845 133.474 166.764 126.918 169.987 123.393C178.266 114.488 188.946 111.396 200.701 114.612ZM649.099 114.612C655.988 116.962 661.171 121.167 665.847 128.155C668.691 132.36 669.576 134.401 668.502 134.401C668.312 134.401 666.542 133.659 664.583 132.793C661.487 131.309 660.286 131.124 654.408 131.124C643.98 131.185 632.541 134.958 616.678 143.801C615.541 144.42 613.518 145.471 612.254 146.213C610.927 146.955 609.6 147.759 609.221 148.007C608.905 148.254 607.325 149.182 605.745 149.986C604.165 150.851 601.763 152.15 600.373 152.954C598.983 153.758 596.581 155.057 595.064 155.922C593.484 156.788 590.893 158.211 589.313 159.138C583.436 162.54 577.937 164.704 573.008 165.632C563.907 167.301 554.806 164.766 548.17 158.705C546.464 157.159 545.263 155.675 545.39 155.428C545.579 155.118 547.918 154.747 550.635 154.5C555.122 154.067 559.041 153.14 562.643 151.655C563.401 151.346 564.792 150.79 565.803 150.418C569.405 148.934 570.859 148.254 576.61 145.1C579.833 143.307 582.614 141.822 582.804 141.822C582.93 141.822 583.372 141.513 583.815 141.204C585.016 140.214 608.146 125.805 613.013 123.022C628.813 113.931 639.62 111.458 649.099 114.612ZM183.575 137.184C189.958 138.483 194.698 140.895 210.118 150.728C224.78 160.004 230.847 163.653 237.294 167.054C243.045 170.084 249.807 172.744 251.766 172.744C254.358 172.744 256.254 173.424 256.254 174.352C256.254 175.341 253.094 177.691 249.618 179.237C247.785 180.103 245.636 180.412 241.718 180.474C236.915 180.474 235.903 180.288 232.238 178.495C228.383 176.64 224.148 174.352 221.052 172.372C220.293 171.94 218.713 171.012 217.576 170.332C216.438 169.713 212.393 167.301 208.538 165.013C197.415 158.334 195.898 157.469 190.716 154.933C186.166 152.645 184.459 151.903 179.593 149.924C177.128 148.996 171.377 148.378 169.292 148.872C167.712 149.305 167.648 149.367 168.786 150.047C169.418 150.48 171.124 151.222 172.515 151.655C178.835 153.696 190.716 160.004 203.798 168.229C211.635 173.176 218.776 177.753 219.724 178.371C220.672 179.052 221.62 179.546 221.873 179.546C222.063 179.546 223.011 180.041 223.896 180.721C224.844 181.34 226.613 182.391 227.814 183.071C234.071 186.534 235.903 187.524 237.041 188.081C239.063 189.132 241.339 189.936 242.982 190.307C243.867 190.492 245.13 191.049 245.826 191.544C247.09 192.409 247.026 192.471 245.067 194.512C241.465 198.161 234.134 200.635 230.721 199.336C229.773 199.027 228.13 198.717 226.992 198.717C224.717 198.717 214.669 194.079 209.486 190.678C203.103 186.473 191.158 180.412 181.363 176.454C169.355 171.569 152.733 169.095 144.581 170.95C134.09 173.362 127.896 178.062 123.219 187.029C121.639 190.121 120.375 193.152 120.375 193.77C120.375 194.388 119.807 195.502 119.175 196.306L117.974 197.79L117.595 196.244C116.204 189.812 116.015 186.411 116.899 181.401C118.227 173.176 118.922 171.383 123.093 166.065C128.022 159.695 137.882 154.005 147.551 151.841C150.016 151.284 158.168 149.924 160.76 149.676C161.265 149.615 162.276 148.563 162.972 147.265C166.321 141.513 170.176 138.421 175.548 137.122C177.318 136.689 178.898 136.318 178.961 136.318C179.024 136.257 181.11 136.689 183.575 137.184ZM660.412 138.483C664.078 140.153 666.922 142.812 669.134 146.77C670.018 148.316 671.093 149.615 671.535 149.676C684.87 151.161 693.844 153.943 701.049 158.705C706.611 162.354 712.362 169.033 713.689 173.362C714.005 174.537 714.637 176.516 715.016 177.753C716.091 181.154 715.901 192.533 714.763 195.254C713.752 197.542 712.551 197.79 712.551 195.687C712.551 192.595 707.938 183.937 704.02 179.732C694.034 168.909 677.349 167.487 654.092 175.341C645.56 178.248 630.329 185.73 622.556 190.863C617.437 194.265 607.578 198.717 605.239 198.717C604.165 198.717 602.585 198.965 601.7 199.336C599.867 200.016 593.8 198.903 590.83 197.357C589.692 196.738 588.049 195.378 587.101 194.265C585.458 192.409 585.458 192.286 586.596 191.482C587.228 190.987 588.428 190.492 589.313 190.307C591.272 189.874 598.477 186.473 603.533 183.504C605.618 182.329 607.83 181.216 608.462 180.969C609.031 180.783 609.537 180.412 609.537 180.165C609.537 179.917 610.295 179.423 611.18 178.99C612.128 178.619 619.586 174.042 627.801 168.848C640.757 160.622 655.988 152.336 658.137 152.336C658.516 152.336 659.338 152.088 659.97 151.779C660.539 151.47 661.866 150.851 662.814 150.418C664.331 149.738 664.457 149.553 663.509 149.058C662.182 148.316 655.293 148.872 652.765 149.924C651.754 150.295 649.921 151.037 648.72 151.532C643.159 153.82 634.69 158.272 627.865 162.54C625.273 164.147 622.303 166.003 621.229 166.559C620.217 167.178 616.236 169.528 612.381 171.754C608.589 173.98 603.28 176.887 600.689 178.186C596.328 180.288 595.633 180.474 590.577 180.412C586.469 180.412 584.51 180.103 582.361 179.113C579.138 177.629 576.041 175.217 576.041 174.166C576.041 173.424 578.064 172.744 580.528 172.744C585.395 172.744 597.592 166.25 623.125 150.109C637.092 141.266 642.527 138.483 648.341 137.246C653.081 136.257 656.304 136.566 660.412 138.483ZM448.063 140.586C454.699 141.204 457.48 141.513 466.707 142.997C474.733 144.234 478.335 144.914 483.707 146.213C506.838 151.779 538.564 166.126 553.29 177.629C573.45 193.337 584.51 206.386 590.83 221.908C591.778 224.258 592.852 226.732 593.168 227.289C593.484 227.907 593.737 228.896 593.737 229.515C593.737 230.133 593.99 230.875 594.243 231.185C594.875 231.927 597.213 241.76 598.161 247.573C600.626 263.343 596.707 289.873 590.324 300.324C585.774 307.746 580.023 306.014 572.881 295.068C568.773 288.884 567.257 287.214 562.453 283.503C554.996 277.69 543.178 272.681 532.118 270.516C524.218 268.97 521.374 268.599 512.084 267.919C499.697 266.991 486.741 267.919 476.06 270.516C466.896 272.743 466.012 272.99 457.416 277.072C445.788 282.638 441.427 287.77 441.427 296.119C441.427 299.521 441.617 300.263 443.197 301.871C446.357 305.148 447.937 305.148 457.543 301.871C465.759 298.964 468.287 298.655 481.559 298.655C489.079 298.655 495.083 298.964 496.41 299.397C497.611 299.768 499.886 300.386 501.466 300.757C508.102 302.427 521.564 310.157 528.073 316.032C533.129 320.609 538.691 328.957 540.587 334.709C541.282 336.811 540.65 340.955 539.386 342.501C537.995 344.233 536.226 347.943 536.226 349.18C536.226 349.922 537.047 351.53 538.059 352.705C552.847 370.206 556.639 376.02 558.598 384.245C559.862 389.378 559.862 392.408 558.598 397.664C556.702 405.642 551.899 413.929 544.252 422.216C539.323 427.534 535.91 429.39 531.043 429.39C528.263 429.39 527.188 429.018 524.724 427.225C519.857 423.762 513.348 413.187 510.125 403.416C506.396 392.408 497.485 374.597 492.492 368.166C484.719 358.209 481.685 355.797 476.882 355.797C473.216 355.797 471.51 356.415 466.707 359.569C462.788 362.105 458.428 366.31 454.888 370.948C452.045 374.659 449.264 379.792 449.833 380.287C450.149 380.596 454.952 377.318 455.963 376.143C456.721 375.216 463.61 371.814 466.454 370.948C470.751 369.65 476.503 369.773 480.484 371.196C489.079 374.288 495.336 382.699 496.726 392.903C496.916 394.449 497.295 396.86 497.485 398.345C497.801 400.88 497.042 406.26 495.652 411.022C494.704 414.114 491.354 417.392 488.7 417.763C487.562 417.949 482.949 417.578 478.399 416.959C473.848 416.341 466.517 415.784 461.904 415.784C454.699 415.784 453.372 415.599 452.108 414.609L450.654 413.496L452.297 412.012C454.509 409.971 463.61 408.796 470.815 409.6C481.432 410.775 486.93 409.971 486.93 407.25C486.93 405.828 484.15 403.354 480.927 401.808C477.324 400.138 466.075 400.138 460.703 401.87C454.636 403.787 446.42 408.363 441.743 412.445C439.658 414.238 434.538 416.712 428.155 418.876C424.553 420.175 422.91 420.299 414.883 420.299C405.783 420.237 405.656 420.237 400.348 418.011C397.377 416.774 393.585 414.671 391.816 413.311C384.548 407.621 377.786 403.787 371.592 401.87C365.841 400.014 354.971 400.138 350.926 402.055C345.364 404.653 343.848 407.559 347.26 409.291C349.346 410.342 353.833 410.466 361.48 409.6C368.685 408.796 377.786 409.971 379.997 412.012L381.641 413.496L380.187 414.609C378.923 415.599 377.533 415.784 370.075 415.846C365.335 415.846 358.004 416.341 353.77 416.959C343.911 418.32 342.331 418.134 339.424 415.228C336.453 412.197 335.253 407.745 335.253 399.52C335.316 389.501 337.591 382.76 342.963 377.071C347.829 371.876 353.138 369.773 360.153 370.206C362.618 370.392 365.462 370.701 366.536 370.948C369.127 371.629 377.09 376.329 379.681 378.617C382.841 381.585 383.473 380.967 381.325 377.009C378.544 371.814 375.574 368.104 370.391 363.404C362.997 356.663 356.045 354.189 351.179 356.663C348.588 357.962 341.509 365.444 338.033 370.639C335.379 374.473 329.249 386.1 327.037 391.356C326.784 392.037 326.089 393.583 325.583 394.758C325.077 395.933 324.066 398.53 323.308 400.447C320.148 408.858 319.137 411.27 318.189 413.001C314.397 419.68 313.449 421.288 312.058 423.082C311.174 424.195 309.151 426.112 307.571 427.225C301.947 431.245 295.247 429.822 288.991 423.267C275.529 409.105 270.284 394.449 274.265 382.08C276.161 376.143 281.217 367.733 285.768 362.909C286.4 362.229 288.043 360.25 289.433 358.58C290.76 356.848 292.087 355.364 292.277 355.179C293.225 354.437 296.069 349.86 296.069 349.118C296.069 348.252 294.173 343.985 293.604 343.429C291.203 341.326 291.013 335.513 293.225 330.813C295.184 326.607 300.24 319.99 304.538 316.032C311.174 309.91 324.066 302.427 330.829 300.757C332.409 300.386 334.684 299.768 335.884 299.397C339.108 298.345 362.491 298.469 366.852 299.459C368.748 299.953 372.73 301.128 375.7 302.18C383.094 304.715 384.99 304.901 387.645 303.107C393.648 299.088 391.626 288.203 383.789 282.143C379.302 278.68 368.053 273.485 361.354 271.753C351.495 269.218 348.461 268.723 338.033 267.919C326.341 266.991 311.553 268.105 297.965 271.011C291.898 272.248 288.422 273.485 280.269 277.134C277.172 278.494 270.347 282.947 267.061 285.668C265.544 286.966 262.51 290.677 260.361 293.955C251.45 307.436 245.383 308.426 240.327 297.047C238.115 292.223 236.156 285.111 234.639 276.639C233.565 270.455 233.565 249.119 234.639 244.172C236.156 237.616 237.799 231.185 238.558 229.329C240.264 224.939 242.729 219.002 243.867 216.652C250.945 201.377 273.128 179.546 292.593 168.724C300.999 164.024 314.27 157.778 321.917 154.871C339.992 148.007 349.093 145.533 365.588 142.997C375.068 141.513 377.722 141.204 386.128 140.586C390.994 140.276 395.86 139.843 396.872 139.72C400.348 139.287 441.048 139.967 448.063 140.586ZM167.143 185.421C169.418 185.916 171.819 186.596 172.515 186.906C173.21 187.215 174.79 187.771 175.991 188.204C177.191 188.637 178.835 189.194 179.656 189.503C180.415 189.812 181.679 190.307 182.5 190.616C187.872 192.719 193.181 194.759 195.582 195.811C197.162 196.429 198.995 197.233 199.69 197.542C201.586 198.346 210.055 202.057 214.605 204.16C220.862 207.004 223.896 207.685 229.9 207.685C234.703 207.685 235.398 207.808 235.398 208.736C235.398 211.519 230.658 217.332 226.55 219.496C223.011 221.352 214.732 221.042 209.802 218.816C207.717 217.889 205.189 216.775 204.114 216.342C200.765 214.982 197.858 213.745 194.698 212.385C192.991 211.642 190.147 210.467 188.378 209.787C186.608 209.107 184.143 208.117 182.943 207.561C176.433 204.84 166.321 201.191 165.12 201.191C164.552 201.191 163.856 200.882 163.667 200.573C163.477 200.202 162.592 199.954 161.708 199.954C160.823 199.954 159.559 199.645 158.927 199.336C158.232 198.965 154.693 198.594 151.027 198.47C147.298 198.346 144.201 198.099 144.075 197.975C143.38 197.295 145.529 192.781 147.677 190.369C152.417 185.112 158.674 183.504 167.143 185.421ZM679.372 186.349C683.101 188.081 685.881 190.863 687.335 194.203C689.041 198.099 688.599 198.903 685.249 198.408C681.647 197.975 669.26 199.583 668.565 200.635C668.375 200.944 667.68 201.191 666.985 201.191C666.353 201.191 665.279 201.438 664.646 201.748C664.078 202.119 661.423 203.108 658.832 203.974C653.839 205.706 652.891 206.077 649.352 207.561C648.151 208.117 645.687 209.107 643.917 209.787C642.148 210.467 639.304 211.642 637.597 212.385C635.891 213.127 633.679 214.054 632.604 214.487C628.117 216.342 626.095 217.208 622.493 218.816C617.31 221.166 609.347 221.414 605.302 219.311C602.522 217.827 599.362 214.487 597.908 211.395C596.139 207.808 596.012 207.932 603.406 207.746C607.514 207.623 610.485 207.313 610.927 206.881C611.37 206.448 612.065 206.138 612.507 206.138C612.95 206.138 615.541 205.149 618.195 203.912C624.705 200.944 629.634 198.779 631.973 197.79C633.047 197.357 635.133 196.491 636.712 195.811C639.114 194.759 644.17 192.781 649.858 190.616C650.616 190.307 651.88 189.812 652.702 189.503C653.46 189.194 655.103 188.637 656.304 188.204C657.505 187.771 659.085 187.215 659.78 186.906C665.594 184.37 674.632 184.123 679.372 186.349ZM159.559 206.819C161.455 207.19 163.73 207.746 164.615 207.994C165.5 208.303 168.596 209.231 171.567 210.158C174.537 211.024 177.507 212.013 178.203 212.261C179.277 212.694 194.95 218.754 199.058 220.362C199.754 220.61 201.017 221.104 201.902 221.475C207.717 224.011 217.07 226.546 220.736 226.546C224.338 226.546 224.654 226.67 224.654 227.907C224.654 230.69 219.029 236.379 213.973 238.668C210.94 240.028 209.929 240.214 205.125 239.966C199.69 239.719 196.973 239.286 194.634 238.297C193.118 237.678 181.552 233.535 178.835 232.607C177.823 232.298 176.37 231.741 175.675 231.494C174.979 231.247 172.704 230.381 170.619 229.639C168.533 228.896 166.132 228.031 165.247 227.66C163.288 226.918 155.704 224.506 151.975 223.454C150.395 223.021 148.436 222.465 147.551 222.218C141.673 220.362 127.517 219.62 124.167 220.981C121.26 222.156 120.249 221.475 121.134 219.002C122.967 213.683 128.528 208.921 134.785 207.252C140.789 205.644 152.291 205.458 159.559 206.819ZM695.804 206.819C699.469 207.746 704.841 210.406 706.737 212.323C707.685 213.25 709.265 215.415 710.276 217.208C712.425 221.166 711.919 222.279 708.443 221.042C707.243 220.61 704.083 220.239 701.492 220.239C696.12 220.239 686.008 221.475 685.123 222.279C684.744 222.589 683.859 222.836 683.037 222.836C682.279 222.836 681.015 223.083 680.193 223.393C679.372 223.702 677.602 224.258 676.212 224.691C673.558 225.433 665.784 228.154 663.572 229.02C662.877 229.268 661.297 229.824 660.096 230.257C658.895 230.69 657.315 231.247 656.62 231.494C655.925 231.741 654.345 232.298 653.144 232.731C651.943 233.164 650.363 233.72 649.668 234.029C648.973 234.339 646.256 235.266 643.664 236.132C641.073 237.06 638.356 237.987 637.66 238.297C635.385 239.224 632.668 239.657 627.359 239.966C621.608 240.276 618.827 239.533 614.403 236.627C611.875 234.895 606.756 228.031 607.388 227.103C607.578 226.794 609.474 226.546 611.622 226.546C615.225 226.546 624.578 224.011 630.393 221.475C631.277 221.104 632.541 220.61 633.237 220.362C642.211 216.961 653.081 212.694 653.903 212.261C654.535 211.952 655.483 211.704 655.988 211.704C656.494 211.704 657.442 211.457 658.074 211.148C659.211 210.467 663.193 209.231 669.26 207.623C676.591 205.644 689.61 205.273 695.804 206.819ZM123.219 231.741C128.654 232.731 134.532 233.968 139.335 235.204C140.536 235.514 143.001 236.07 144.707 236.441C148.246 237.245 152.165 238.235 154.503 238.915C155.388 239.162 157.916 239.904 160.191 240.461C162.466 241.018 164.994 241.76 165.879 242.007C167.396 242.44 169.355 242.997 175.232 244.419C176.686 244.79 178.961 245.347 180.288 245.718C183.511 246.522 190.084 247.944 194.634 248.872C200.07 249.923 212.457 249.923 215.048 248.872C217.449 247.882 218.144 248.253 217.26 250.232C216.88 250.974 216.248 252.397 215.806 253.448C212.836 260.312 209.36 264.827 204.746 267.672C199.248 271.135 194.382 271.011 176.307 267.053C173.905 266.497 170.303 265.755 168.407 265.445C159.559 263.776 153.113 262.601 148.689 261.858C146.856 261.549 141.231 260.622 136.175 259.694C131.119 258.766 125.052 257.777 122.587 257.406C120.186 257.097 116.204 256.478 113.739 256.169C106.535 255.056 99.1404 254.437 89.4078 254.005C81.8239 253.695 79.6119 253.819 76.5784 254.685C71.5224 256.107 67.9833 258.89 65.8977 263.034C64.3177 266.187 63.4961 271.073 64.6337 271.073C64.8865 271.073 66.9089 270.764 69.184 270.393C83.6567 268.166 96.4861 267.053 121.639 265.755C135.227 265.074 158.548 268.166 173.147 272.495C191.285 277.938 196.151 280.349 188.946 280.349C185.344 280.349 177.887 281.401 173.463 282.576C164.615 284.926 158.611 288.141 152.101 294.017C146.793 298.902 137.313 303.417 128.275 305.334C116.963 307.807 103.501 307.684 90.0398 304.963C81.9503 303.293 70.8272 302.798 66.0241 303.911C55.4066 306.261 46.2428 312.94 42.2612 321.165C41.3764 323.021 40.3652 325.061 40.0492 325.618C39.7332 326.236 39.4804 327.473 39.4804 328.401C39.4804 329.39 39.2276 330.504 38.9117 330.998C38.4693 331.679 38.0901 331.431 37.3317 329.947C36.0045 327.411 35.8781 311.642 37.2053 306.818C40.5548 294.511 45.1684 286.966 54.585 278.37L59.5778 273.856L59.8938 269.836C60.0834 267.61 60.5258 264.703 60.905 263.343C61.2842 261.982 61.7265 260.003 61.9793 259.014C62.1689 257.962 63.5593 254.623 65.0761 251.593C70.0056 241.574 79.1063 234.091 89.5342 231.432C96.5493 229.639 112.412 229.824 123.219 231.741ZM742.634 231.494C750.661 233.596 756.98 237.493 761.847 243.429C767.598 250.356 771.011 258.643 772.527 269.218L773.159 273.856L779.985 280.659C785.989 286.657 787.19 288.203 789.907 293.645C793.32 300.386 793.636 301.067 794.584 304.777C796.669 312.878 797.112 319.867 795.911 326.36C794.71 332.792 794.394 333.039 793.194 328.896C790.034 318.321 784.03 311.209 774.929 307.003C772.085 305.705 768.167 304.344 766.271 303.911C761.468 302.798 750.345 303.293 742.255 304.963C726.455 308.178 708.886 307.684 697.7 303.726C692.644 301.932 683.922 297.294 681.773 295.315C671.788 285.853 662.182 281.957 645.56 280.597C643.285 280.411 641.073 280.102 640.568 279.978C638.419 279.298 645.308 276.639 661.044 272.062C676.022 267.734 698.711 264.889 711.919 265.755C715.585 266.002 722.853 266.435 728.035 266.806C743.772 267.734 750.029 268.414 763.364 270.455C765.765 270.826 767.977 270.887 768.23 270.64C768.925 269.96 767.219 263.961 765.576 261.364C763.68 258.457 759.951 255.86 755.653 254.623C752.683 253.819 750.408 253.695 742.887 254.005C733.154 254.437 725.76 255.056 718.555 256.169C716.154 256.478 712.172 257.097 709.707 257.406C707.306 257.777 701.176 258.766 696.12 259.694C691.064 260.622 685.565 261.549 683.796 261.858C682.089 262.106 679.814 262.477 678.74 262.724C677.729 262.91 675.327 263.343 673.558 263.652C666.479 264.951 663.383 265.569 657.252 266.806C633.868 271.691 630.709 271.506 623.63 264.518C618.448 259.447 612.76 247.078 616.362 248.501C622.493 251.098 635.006 249.923 654.598 245.099C655.862 244.728 658.011 244.233 659.338 243.924C660.602 243.615 662.814 242.997 664.204 242.625C665.594 242.254 667.617 241.698 668.628 241.451C669.702 241.141 672.23 240.461 674.316 239.843C676.402 239.286 679.814 238.42 681.9 237.925C687.145 236.689 689.673 236.008 692.644 235.266C706.358 231.741 715.585 230.443 727.277 230.319C736.062 230.257 738.653 230.443 742.634 231.494ZM330.702 274.474C350.736 276.268 365.272 282.452 363.376 288.389C362.997 289.502 359.9 291.048 355.792 292.099C352.695 292.842 340.94 292.903 334.873 292.099C330.386 291.543 320.653 292.409 314.839 293.831C310.478 294.944 302.642 299.397 298.913 302.922C297.333 304.406 292.403 310.528 290.95 312.817C289.433 315.167 283.429 327.04 283.429 327.659C283.429 327.844 282.86 329.143 282.228 330.627C278.057 339.718 272.812 356.23 270.789 366.62C270.41 368.66 269.778 371.443 269.525 372.804C268.577 376.885 266.113 389.563 265.101 395.067C264.785 396.737 264.28 399.705 263.901 401.56C263.521 403.416 263.079 405.951 262.889 407.126C262.763 408.301 262.321 410.837 262.005 412.692C257.138 440.026 255.874 460.311 258.276 471.257C259.287 475.895 260.361 475.586 265.038 469.34C271.421 460.744 278.563 454.25 290.823 445.901C293.667 443.984 296.322 442.376 296.701 442.376C297.017 442.376 297.333 442.191 297.333 441.882C297.333 441.634 297.965 441.14 298.787 440.769C299.545 440.397 302.326 439.037 304.917 437.8C307.508 436.501 310.289 435.203 311.11 434.894C311.869 434.584 313.133 434.09 313.954 433.78C320.906 431.059 324.825 430.317 332.409 430.317C339.297 430.317 340.182 430.441 342.078 431.74C344.796 433.657 344.859 436.625 342.141 441.387C340.561 444.355 340.435 444.85 341.32 444.85C342.331 444.85 345.301 442.933 347.387 440.954C347.829 440.521 350.357 438.604 352.948 436.625C355.539 434.708 358.004 432.853 358.383 432.544C358.763 432.234 360.595 431.245 362.365 430.317C371.971 425.617 378.418 429.204 376.332 438.109C375.89 439.965 375.321 441.944 375.005 442.5C373.488 445.345 377.849 443.799 380.44 440.583C381.893 438.728 385.875 434.832 388.909 432.234C390.046 431.307 392.574 429.822 394.47 429.018C397.693 427.596 398.072 427.596 399.084 428.462C400.284 429.513 401.675 436.254 401.169 438.728C401.043 439.532 401.169 441.263 401.422 442.5L401.928 444.85L403.76 441.263C408.248 432.729 414.378 429.884 421.456 433.162C424.237 434.399 426.07 436.501 428.724 441.634C429.482 443.057 430.367 444.232 430.683 444.232C431.062 444.232 431.315 441.696 431.315 438.109C431.315 431.678 432.074 428.462 433.654 427.905C435.613 427.163 442.249 430.874 446.862 435.326C449.327 437.676 451.729 440.15 452.234 440.83C452.74 441.573 454.067 442.747 455.268 443.613L457.416 445.036L456.974 442.624C455.963 437.367 455.836 432.296 456.595 430.874C458.554 427.349 464.305 427.411 471.004 430.997C473.343 432.172 475.365 433.409 475.555 433.595C475.744 433.842 477.008 434.832 478.399 435.883C479.789 436.872 481.495 438.233 482.191 438.851C482.886 439.47 485.161 441.263 487.183 442.747C491.544 445.963 492.934 445.654 490.596 442.005C488.005 437.986 487.436 435.759 488.51 433.78C489.901 431.059 492.618 430.317 500.897 430.317C504.879 430.379 508.987 430.688 510.061 431.059C511.073 431.43 513.158 432.049 514.738 432.544C516.318 432.976 517.835 433.533 518.214 433.842C518.53 434.09 519.162 434.337 519.668 434.337C520.679 434.337 529.59 438.419 531.802 439.903C532.687 440.521 534.519 441.634 535.847 442.376C541.851 445.654 552.089 453.323 558.914 459.692C560.937 461.486 566.688 468.35 569.342 471.999C572.376 476.081 573.324 475.338 574.714 467.979C575.599 463.279 575.599 449.179 574.777 442.686C574.398 439.965 573.766 435.388 573.45 432.482C572.692 426.854 570.985 416.341 568.394 401.87C568.141 400.138 567.573 397.108 567.257 395.067C566.941 393.026 566.498 390.8 566.309 390.12C565.993 388.759 565.613 386.966 562.706 372.495C561.632 367.238 560.431 361.796 560.115 360.435C559.799 359.075 559.294 356.972 559.041 355.797C558.472 353.385 553.606 338.852 552.721 336.935C552.405 336.255 551.773 334.709 551.33 333.534C550.888 332.359 549.814 329.823 548.992 327.968C540.144 308.426 533.951 301.005 522.006 295.501C516.255 292.903 504.753 291.295 497.358 292.161C478.146 294.264 464.684 290.553 469.993 284.616C473.722 280.473 482.57 277.072 493.566 275.464C505.953 273.732 509.872 273.547 517.266 274.474C523.902 275.278 525.735 275.649 530.538 277.01C533.066 277.752 545.706 284.122 545.706 284.678C545.706 284.988 546.211 285.359 546.843 285.544C548.613 286.163 557.587 294.944 562.201 300.51C565.993 305.21 573.071 317.764 576.231 325.494C576.863 327.04 577.684 328.957 578.064 329.823C579.77 333.719 583.309 343.058 584.636 346.954C585.142 348.623 585.837 350.479 586.09 351.159C586.406 351.839 587.67 355.735 588.997 359.817C590.261 363.898 591.462 367.671 591.651 368.166C591.841 368.66 592.22 370.021 592.536 371.072C592.852 372.185 593.421 374.164 593.8 375.401C594.179 376.7 594.685 378.741 595.001 379.916C595.317 381.091 596.581 385.976 597.845 390.738C599.172 395.5 600.436 400.509 600.752 401.87C601.005 403.23 601.511 405.457 601.827 406.817C602.775 410.466 603.912 415.784 604.481 418.567C604.734 419.928 605.555 423.824 606.314 427.225C607.072 430.626 607.957 434.894 608.273 436.625C609.537 443.242 610.169 446.458 610.485 448.561C610.674 449.736 611.117 452.519 611.433 454.745C612.95 464.702 614.719 470.453 618.764 478.554C624.894 490.923 629.255 496.55 638.229 503.291C639.556 504.281 641.01 505.456 641.389 505.765C641.768 506.136 646.003 508.919 650.806 511.949C655.609 515.041 659.907 517.824 660.286 518.133C660.728 518.504 663.319 520.298 666.1 522.153C673.178 526.915 686.197 539.716 690.874 546.581C697.004 555.548 702.376 566.68 704.272 574.41C704.715 576.08 705.347 578.615 705.726 579.976C706.674 583.439 706.548 601.064 705.6 605.084C703.451 613.804 698.711 625.987 697.257 626.543C697.004 626.667 696.752 627.038 696.752 627.409C696.752 628.213 692.77 633.593 689.989 636.562C688.915 637.737 687.398 639.468 686.64 640.458C684.807 642.746 683.922 642.622 684.301 640.087C687.019 623.822 686.197 613.185 681.331 602.857C676.654 592.839 666.606 582.449 653.776 574.41C647.583 570.514 646.824 570.143 632.541 562.969C622.745 558.022 608.589 549.797 607.009 548.127C606.819 547.941 605.682 547.076 604.481 546.272C600.815 543.798 590.387 535.758 587.923 533.408C585.142 530.811 584.763 531.677 586.975 535.82C588.555 538.912 595.317 547.509 599.551 551.837C602.901 555.301 612.823 563.959 615.983 566.247C617.247 567.174 618.638 568.288 619.143 568.72C619.586 569.153 620.597 569.957 621.418 570.514C623.567 571.936 632.099 579.419 636.712 583.996C649.036 595.993 656.62 606.692 662.308 620.173C667.364 632.171 669.702 648.435 668.375 662.721C667.996 667.235 667.364 672.368 667.048 674.1C666.669 675.893 666.1 678.985 665.721 680.903C663.825 691.23 659.97 699.146 652.512 708.299C642.148 720.976 631.025 729.263 612.634 738.107C607.957 740.333 603.154 742.621 601.953 743.116C600.752 743.611 598.161 744.724 596.265 745.528C592.599 747.136 585.205 749.671 580.465 750.97C578.885 751.403 577.052 751.898 576.357 752.145C575.662 752.392 570.543 753.629 564.981 754.928C559.42 756.227 554.174 757.463 553.29 757.711C552.405 757.958 551.078 757.958 550.446 757.711C549.75 757.463 549.561 757.216 550.003 757.216C550.509 757.154 551.773 756.783 552.847 756.288C553.985 755.856 555.881 755.113 557.082 754.681C558.282 754.248 559.862 753.691 560.557 753.382C561.253 753.073 563.401 752.269 565.297 751.527C572.692 748.806 585.142 742.931 590.577 739.715C595.696 736.684 605.745 730.005 608.02 728.15C609.094 727.284 611.18 725.615 612.634 724.44C624.515 715.04 636.396 698.59 640.757 685.293C644.612 673.667 645.055 659.938 641.832 650.167C641.516 649.301 640.947 647.508 640.568 646.147C639.493 642.684 639.114 641.818 636.396 636.562C634.311 632.48 629.571 625.059 628.56 624.193C628.37 624.008 627.043 622.462 625.653 620.792C622.24 616.586 616.489 611.144 610.801 606.754C608.21 604.713 605.555 602.672 604.86 602.115C599.299 597.725 576.294 585.232 573.703 585.232C573.071 585.232 573.829 586.098 575.472 587.211C576.989 588.325 578.38 589.376 578.569 589.561C578.759 589.747 580.592 591.231 582.677 592.963C588.302 597.477 601.258 610.279 605.239 615.226C615.983 628.46 622.556 641.323 625.905 655.3C626.79 659.072 626.79 676.512 625.905 680.284C623.567 690.117 622.24 693.889 617.879 702.733C610.738 717.39 597.466 728.212 571.301 740.704C563.844 744.291 555.881 747.878 555.438 747.878C555.312 747.878 553.795 748.434 552.152 749.177C548.866 750.599 546.78 751.465 544.631 752.269C543.81 752.578 542.546 753.073 541.787 753.444C539.07 754.557 533.382 756.66 530.538 757.525C528.958 758.02 527.188 758.7 526.62 759.01C525.988 759.381 525.04 759.628 524.534 759.628C524.028 759.628 523.08 759.875 522.448 760.185C521.88 760.494 518.277 761.792 514.422 762.967C507.281 765.256 505.764 765.689 500.834 766.987C499.254 767.42 497.169 767.977 496.094 768.286C495.083 768.595 490.912 769.523 486.93 770.45C474.417 773.233 472.395 773.852 467.023 776.387C461.651 778.923 456.595 783.808 456.595 786.406C456.595 788.323 455.331 788.075 454.509 786.097C452.803 782.015 451.981 775.336 452.803 771.811C455.015 762.04 461.588 755.299 481.116 742.621C483.96 740.766 486.488 739.22 486.678 739.22C486.867 739.22 487.815 738.725 488.7 738.107C491.607 736.128 498.496 732.603 519.668 722.09C530.917 716.586 540.903 711.453 541.914 710.772C542.862 710.092 543.936 709.536 544.252 709.536C545.263 709.536 554.427 699.826 555.754 697.291C559.104 690.859 560.557 683.5 559.989 675.646C559.294 665.318 558.219 660.247 555.186 652.702C550.572 641.076 545.01 632.418 534.456 620.235C529.59 614.546 527.947 613.865 530.854 618.689C532.181 620.977 538.943 634.212 540.65 638.108C542.483 642.127 544.442 647.446 544.442 648.373C544.442 648.992 544.695 649.61 545.01 649.796C545.326 649.981 545.706 651.033 545.895 652.146C546.085 653.259 546.59 655.424 546.97 656.97C548.929 664.514 549.371 679.666 547.665 682.758C547.349 683.376 546.338 685.479 545.39 687.458C541.408 695.93 532.876 703.846 516.824 714.112C512.273 717.019 508.355 719.43 508.229 719.43C508.039 719.43 506.08 720.544 503.741 721.904C501.466 723.265 497.864 725.305 495.652 726.419C493.44 727.594 490.09 729.387 488.194 730.5C486.298 731.552 483.644 732.912 482.38 733.53C481.053 734.087 479.979 734.767 479.979 735.015C479.979 735.324 479.663 735.509 479.347 735.509C478.967 735.509 476.06 737.055 472.9 738.911C469.74 740.766 467.023 742.312 466.896 742.312C466.454 742.312 456.848 748.682 454.067 750.785C452.487 752.021 449.074 755.175 446.42 757.835C437.698 766.616 434.602 776.14 437.382 785.602C439.152 791.724 439.152 791.786 438.014 791.786C433.401 791.786 427.334 781.52 425.564 770.76C422.91 754.495 434.222 738.602 460.071 722.275C470.878 715.411 469.993 715.905 481.559 710.154C486.804 707.495 492.113 704.774 493.44 704.093C494.704 703.351 496.726 702.238 497.864 701.558C504.563 697.847 510.441 694.261 513.79 691.911C517.772 689.128 526.43 680.655 527.947 677.996C531.549 671.935 532.876 665.937 532.181 658.763C531.802 654.31 530.791 651.033 528.263 646.023C526.746 642.87 523.207 638.602 522.638 639.159C522.448 639.283 522.954 640.952 523.649 642.808C525.482 647.508 525.924 654.991 524.597 660.062C522.891 666.617 519.984 671.564 514.738 676.759C510.63 680.841 500.518 688.509 499.254 688.509C499.001 688.509 498.054 689.004 497.169 689.684C494.072 691.787 479.283 698.837 472.331 701.496C464.116 704.65 451.349 710.711 447.431 713.308C441.996 716.895 432.453 727.037 428.724 733.098C425.311 738.725 421.646 747.074 420.003 752.825C419.56 754.371 418.928 756.474 418.612 757.525C418.296 758.577 418.043 760.617 418.043 762.164C418.043 767.977 415.958 767.296 414.947 761.112C414.125 756.288 413.619 754 413.051 752.516C412.735 751.836 412.166 750.166 411.723 748.806C410.27 744.415 405.34 734.705 402.37 730.562C397.061 723.141 388.403 715.101 381.577 711.329C376.711 708.546 369.064 705.083 361.796 702.238C347.829 696.796 333.736 689.499 325.141 683.314C315.408 676.326 310.162 669.214 307.508 659.691C306.181 654.929 306.75 647.322 308.709 642.437C310.478 638.046 309.657 637.86 306.686 641.942C301.82 648.559 299.545 656.227 300.051 664.081C300.746 673.914 304.917 680.841 315.029 689.189C319.642 693.024 325.583 696.734 335.253 701.991C336.832 702.795 339.55 704.279 341.256 705.207C343.026 706.196 347.956 708.732 352.316 710.896C379.745 724.687 397.504 739.034 403.95 752.887C408.69 762.844 408.248 772.182 402.623 783.685C400.98 787.086 396.366 791.786 394.66 791.786C393.08 791.786 393.08 791.6 394.66 787.148C397.188 779.912 395.987 771.378 391.373 764.328C386.697 757.154 376.711 748.744 365.398 742.374C364.261 741.756 360.279 739.405 356.424 737.241C349.915 733.53 344.985 730.809 337.464 726.851C335.695 725.986 333.609 724.749 332.725 724.254C329.501 722.213 325.393 719.987 324.382 719.616C323.75 719.43 323.245 719.059 323.245 718.75C323.245 718.441 322.929 718.194 322.549 718.194C322.17 718.194 317.81 715.596 312.88 712.38C296.638 701.805 287.032 691.292 284.124 680.717C283.24 677.439 283.24 666.741 284.124 662.412C285.578 655.3 289.37 643.241 291.771 637.798C293.857 633.222 299.039 622.894 301.441 618.689C302.705 616.525 303.59 614.669 303.463 614.484C303.337 614.36 301.504 616.154 299.482 618.442C297.459 620.792 295.627 622.771 295.437 622.956C291.013 627.162 281.47 642.313 277.552 651.404C276.351 654.125 274.265 661.175 273.317 665.628C272.433 669.709 272.749 687.087 273.76 690.612C275.972 698.033 281.091 704.588 288.548 709.597C290.76 711.082 300.935 716.338 311.237 721.409C330.197 730.686 338.728 735.077 342.963 737.736C344.29 738.54 345.491 739.22 345.68 739.22C346.249 739.22 357.056 746.332 362.112 750.042C371.592 756.969 375.763 761.792 378.797 769.09C379.745 771.44 379.681 780.345 378.607 783.746C377.596 787.024 376.142 787.643 375.194 785.169C374.057 782.2 366.536 775.707 364.198 775.707C363.692 775.707 363.06 775.46 362.744 775.212C361.67 774.346 356.108 772.862 345.364 770.45C341.383 769.523 337.148 768.533 336.074 768.224C334.936 767.915 333.041 767.42 331.966 767.111C326.721 765.75 323.813 764.885 318.821 763.153C315.85 762.164 312.69 761.174 311.679 761.05C310.731 760.865 309.783 760.494 309.594 760.185C309.404 759.875 308.646 759.628 307.824 759.628C307.066 759.628 306.181 759.381 305.865 759.133C305.486 758.886 304.095 758.267 302.705 757.835C301.315 757.402 299.608 756.845 298.913 756.598C298.218 756.288 295.69 755.299 293.225 754.371C290.823 753.444 288.106 752.392 287.221 752.083C286.336 751.712 285.072 751.217 284.377 750.97C283.682 750.661 281.786 749.919 280.143 749.177C278.5 748.434 276.983 747.878 276.793 747.878C276.351 747.878 268.325 744.229 260.361 740.333C241.655 731.366 229.331 722.894 221.494 713.803C218.46 710.216 214.226 702.857 211.193 695.93C207.843 688.2 205.062 675.337 205.062 667.73C205.062 658.083 208.349 645.714 213.405 636.005C217.007 629.202 220.42 623.575 220.988 623.575C221.241 623.575 221.494 623.327 221.494 622.956C221.494 622.276 226.424 615.783 229.71 612.134C237.989 602.981 247.785 593.952 255.432 588.448C257.644 586.84 259.034 585.48 258.592 585.356C256.696 584.985 230.026 599.271 227.814 601.868C227.624 602.054 225.792 603.476 223.706 605.022C215.743 610.835 203.356 623.76 199.248 630.625C196.467 635.263 191.79 645.034 191.79 646.271C191.79 647.013 191.538 647.755 191.222 647.941C190.59 648.312 190.4 649.363 188.946 658.825C187.177 670.266 189.452 683.005 195.456 694.384C196.657 696.734 197.984 699.332 198.363 700.074C198.742 700.878 199.248 701.496 199.564 701.496C199.817 701.496 200.006 701.805 200.006 702.176C200.006 703.661 208.412 714.05 213.91 719.307C218.144 723.388 227.372 730.5 233.818 734.644C236.978 736.623 239.632 738.416 239.822 738.602C240.517 739.282 244.309 741.261 251.514 744.724C260.677 749.115 261.625 749.548 270.473 752.825C274.328 754.248 278.31 755.794 279.321 756.227C280.396 756.66 281.786 757.216 282.481 757.402C283.176 757.587 281.912 757.587 279.637 757.402C276.098 757.092 260.993 753.753 256.254 752.269C255.369 751.96 253.41 751.403 251.83 750.97C247.026 749.671 239.695 747.136 236.03 745.528C234.134 744.724 231.543 743.611 230.342 743.116C226.74 741.57 213.215 735.015 209.486 732.912C201.776 728.645 194.508 723.203 187.746 716.709C173.083 702.547 168.091 692.776 164.868 672.121C164.046 666.864 163.856 644.292 164.615 639.963C166.321 629.759 168.596 622.771 173.273 613.185C180.604 598.281 194.445 583.253 217.702 565.134C232.048 554.002 246.142 538.108 246.142 533.161C246.142 532.233 245.32 532.605 242.223 535.264C240.011 537.057 238.115 538.665 237.926 538.851C237.736 539.036 234.892 541.201 231.606 543.612C221.241 551.157 212.457 556.538 201.46 562.103C182.753 571.565 180.288 572.988 171.819 579.172C159.18 588.386 151.469 598.776 148.057 611.021C146.224 617.761 145.781 629.326 147.172 635.201C148.373 640.334 148.436 641.509 147.488 641.509C146.856 641.509 141.673 636.252 140.03 633.841C139.525 633.098 138.956 632.418 138.703 632.233C138.261 631.8 135.101 627.1 133.71 624.564C131.941 621.534 128.275 611.392 127.454 607.496C127.074 605.64 126.506 602.61 126.126 600.817C125.242 596.55 125.242 588.943 126.126 583.253C127.959 571.627 135.606 553.94 142.937 544.355C147.235 538.727 155.324 530.502 160.823 526.235C164.109 523.637 178.708 513.743 183.638 510.712C201.144 500.014 211.698 486.965 217.639 468.659C219.977 461.548 220.23 460.62 220.23 459.074C220.23 458.27 220.546 455.92 220.925 453.879C221.304 451.776 221.81 448.684 222.126 447.015C222.758 443.428 223.516 439.717 225.349 430.626C226.108 427.04 226.929 423.02 227.182 421.659C227.435 420.299 228.004 417.639 228.446 415.784C228.888 413.929 229.457 411.27 229.773 409.909C230.784 404.962 231.606 401.746 233.818 393.212C235.082 388.45 236.409 383.564 236.662 382.389C236.978 381.214 237.483 379.235 237.799 378.06C238.179 376.885 239 373.793 239.759 371.258C241.971 363.218 248.859 343.243 252.398 334.461C257.328 322.464 260.551 315.414 263.648 310.281C267.187 304.468 270.6 299.892 274.897 295.006C277.804 291.667 285.578 285.111 288.548 283.38C293.035 280.906 300.303 277.505 302.705 276.824C307.382 275.464 308.393 275.278 314.397 274.474C320.085 273.732 321.917 273.732 330.702 274.474ZM206.642 287.152C215.49 288.389 223.58 293.645 229.52 302.118C233.565 307.869 234.829 310.405 236.788 316.527C241.023 329.761 241.907 341.017 239.885 354.251C237.547 369.217 231.795 380.967 225.223 384.245C222.316 385.729 220.356 385.791 217.323 384.554C212.393 382.575 207.021 374.659 204.746 366.125C203.672 362.167 203.419 350.54 204.367 348.252C204.683 347.448 205.315 345.655 205.694 344.233C206.642 341.202 209.676 337.368 211.761 336.564C213.973 335.76 216.059 336.811 217.26 339.223C218.966 342.81 221.936 346.335 224.085 347.387C226.803 348.747 227.372 348.623 229.331 346.768C230.784 345.346 230.974 344.604 230.974 341.079C230.974 332.668 226.171 324.196 217.892 317.95C214.353 315.228 206.2 313.806 201.144 314.981C196.594 316.094 194.382 317.393 191.98 320.485C187.24 326.484 186.861 335.018 190.526 351.777C190.842 353.447 191.348 355.673 191.538 356.725C191.727 357.714 192.106 359.137 192.422 359.817C192.738 360.497 193.118 361.734 193.307 362.6C193.434 363.466 193.876 365.135 194.255 366.31C194.824 368.289 197.984 380.101 199.438 385.605C199.754 386.904 200.259 389.006 200.638 390.243C201.144 392.346 203.482 401.932 205.062 408.796C206.073 413.125 206.832 416.526 207.59 420.422C207.969 422.463 208.538 425.122 208.854 426.297C211.445 436.996 211.382 454.745 208.728 464.949C207.021 471.566 201.839 482.079 198.995 484.862C198.49 485.357 198.11 485.975 198.11 486.223C198.11 487.583 185.597 498.035 183.891 498.035C183.638 498.035 182.69 498.529 181.805 499.21C175.169 503.724 158.421 506.26 150.395 503.91C144.581 502.24 138.198 498.282 134.722 494.262C127.643 486.223 124.926 473.05 128.022 462.166C131.814 448.746 140.473 441.387 156.399 438.047C163.92 436.44 168.154 435.45 169.355 435.017C172.072 433.966 174.411 432.791 175.106 432.172C175.485 431.801 176.749 430.874 177.95 430.07C180.288 428.524 184.08 423.329 185.85 419.186C187.998 414.238 188.757 409.043 187.935 404.653C187.303 401.066 183.891 389.996 182.311 386.224C181.742 384.987 181.363 384.121 179.846 380.349C178.708 377.566 177.002 373.855 173.463 366.62C169.797 359.137 167.206 352.272 166.005 347.139C165.689 345.593 164.994 342.81 164.552 340.955C163.414 336.193 163.414 317.393 164.552 313.744C167.332 304.715 172.199 297.727 178.455 293.769C184.775 289.749 187.177 288.884 195.203 287.461C200.828 286.41 201.27 286.41 206.642 287.152ZM641.705 288.451C646.888 289.749 648.657 290.492 653.587 293.522C659.148 296.985 664.583 304.035 666.922 310.961C669.07 317.269 669.45 331.122 667.743 340.336C667.364 342.192 666.922 344.727 666.732 345.902C666.479 347.077 666.1 348.623 665.847 349.304C665.531 349.984 664.646 352.458 663.888 354.869C663.13 357.219 660.918 362.414 659.022 366.31C654.535 375.525 649.984 385.914 649.984 386.904C649.984 387.337 649.732 387.955 649.479 388.326C649.163 388.635 648.151 391.356 647.203 394.449C646.256 397.479 645.244 400.633 644.865 401.437C643.854 403.91 644.17 412.816 645.497 416.464C647.33 421.721 650.047 426.112 653.207 429.08C654.851 430.626 656.431 431.863 656.62 431.863C656.873 431.863 657.821 432.358 658.706 432.976C660.665 434.337 667.174 436.254 674.316 437.738C681.331 439.161 683.101 439.717 688.473 442.253C695.677 445.716 701.492 452.704 704.209 461.177C705.6 465.567 705.6 478.74 704.209 482.636C702.756 486.656 700.354 491.232 699.785 491.232C699.532 491.232 699.28 491.603 699.28 492.098C699.28 493.211 694.097 497.849 689.989 500.385C685.313 503.353 679.751 504.837 673.558 504.837C665.658 504.837 654.914 502.24 650.49 499.21C649.605 498.529 648.657 498.035 648.404 498.035C648.215 498.035 646.698 497.169 645.055 496.056C637.597 491.108 631.467 483.749 627.106 474.534C624.957 469.958 624.325 468.288 622.745 461.548C621.671 457.157 621.608 433.904 622.619 430.008C622.998 428.462 623.693 425.555 624.073 423.515C625.084 418.443 626.664 411.455 629.824 397.85C631.404 390.985 637.66 367.362 639.936 359.508C642.148 351.901 644.296 339.471 644.296 333.905C644.296 327.35 642.78 322.835 639.556 319.619C636.396 316.527 635.322 315.909 630.835 314.981C621.039 312.817 609.347 319.125 604.418 329.205C603.722 330.751 602.838 332.483 602.522 333.101C601.7 334.647 601.195 342.81 601.763 344.851C602.079 345.84 603.027 347.077 603.975 347.572C605.492 348.5 605.808 348.5 607.83 347.572C610.422 346.335 612.823 343.738 614.403 340.46C615.667 337.801 616.362 337.059 617.942 336.44C619.775 335.76 622.05 337.059 624.199 339.965C626.601 343.367 627.422 345.531 628.497 351.715C631.025 366.31 621.292 385.42 611.243 385.481C603.533 385.543 596.518 374.226 592.473 355.179C591.651 351.221 591.967 330.627 592.979 325.804C597.466 303.788 609.347 289.749 625.653 287.152C629.824 286.472 635.196 286.905 641.705 288.451ZM148.562 308.549C149.257 311.332 148.246 317.517 146.54 320.98C143.885 326.236 138.071 330.565 131.435 332.235C130.045 332.544 127.58 333.163 125.937 333.596C123.725 334.09 118.227 334.214 105.081 333.843C81.8871 333.225 64.3177 333.225 61.7897 333.781C57.745 334.771 52.5627 340.646 52.6259 344.294C52.6259 345.902 53.8267 350.231 54.585 351.406C55.0906 352.148 56.0386 352.087 60.7786 350.912C70.3848 348.5 78.2847 347.201 94.4637 345.346C125.81 341.697 132.004 340.584 138.64 337.368C141.737 335.822 146.287 331.493 146.287 330.009C146.287 329.7 146.793 328.957 147.425 328.339C148.562 327.411 148.689 327.473 149.763 329.761C151.343 333.286 151.28 339.347 149.637 342.501C146.729 347.943 139.778 353.014 132.383 355.117C130.803 355.55 128.844 356.168 127.959 356.415C127.074 356.663 124.673 357.219 122.587 357.652C120.502 358.023 117.784 358.58 116.583 358.889C115.383 359.198 110.39 360.188 105.524 361.054C100.657 361.919 95.5381 362.909 94.1477 363.218C92.7573 363.527 90.6086 363.96 89.4078 364.146C87.259 364.517 83.5935 365.197 79.6119 366.001C74.8088 366.991 66.4665 369.031 61.6002 370.454C53.9531 372.68 52.3099 373.298 45.8004 376.514C37.0789 380.843 34.2981 383.935 32.2125 391.913C31.075 396.242 31.0118 399.705 32.0229 401.622C34.2349 405.642 36.0677 407.003 40.4284 407.807C42.7668 408.239 43.3356 408.054 47.3803 405.333C55.7858 399.767 65.7081 395.871 77.3999 393.521C79.2959 393.088 81.8871 392.531 83.0879 392.284C84.2887 391.975 88.7126 391.047 92.8837 390.12C97.0549 389.254 101.542 388.264 102.869 387.955C104.133 387.584 106.282 387.089 107.609 386.78C127.643 381.956 135.101 379.235 143.127 373.793C150.142 369.031 154.882 363.28 156.02 358.085C156.272 357.158 156.778 356.415 157.284 356.415C159.116 356.415 163.793 363.28 165.057 367.856C165.436 369.217 166.068 371.505 166.448 372.866C167.332 376.205 167.332 387.77 166.448 391.48C165.057 397.046 163.414 401.993 161.518 405.951C158.168 413.001 151.217 421.597 144.012 427.534C137.629 432.853 127.138 442.624 112.791 456.477C97.3077 471.566 92.5677 476.575 85.1102 485.913C82.8983 488.696 80.6863 491.479 80.1175 492.098C77.2103 495.561 67.2881 511.702 64.8233 516.897C59.8938 527.472 57.3026 541.324 59.1354 547.694C59.5146 549.055 59.641 550.291 59.3882 550.477C58.2506 551.59 48.7707 539.655 45.5476 532.914C41.4396 524.565 40.4916 521.535 39.5436 513.928C38.7221 507.187 40.1756 497.045 42.7668 491.232C43.146 490.366 43.7148 489.006 44.094 488.14C45.2948 485.048 48.5179 479.111 49.9715 477.194C50.7931 476.142 51.4883 475.091 51.4883 474.844C51.4883 474.225 58.1874 466.248 61.0946 463.403C63.8753 460.744 71.1432 454.869 74.556 452.519C79.6751 449.055 96.8653 439.841 111.211 432.976C128.907 424.504 134.09 421.35 140.03 415.599C146.287 409.6 150.016 404.467 154.503 395.747C157.284 390.367 158.105 386.533 155.577 390.491C148.752 401.313 137.502 411.826 124.799 419.124C120.312 421.721 97.6237 432.482 96.6757 432.482C96.4861 432.482 94.9693 433.038 93.3261 433.78C88.6494 435.821 85.7422 436.872 72.028 441.758C57.429 446.953 52.2467 449.674 46.4324 455.425C42.8932 458.95 41.0604 461.609 38.7853 466.804C38.4693 467.484 38.1533 469.834 38.0269 471.999C37.9005 474.225 37.5213 476.081 37.1421 476.204C36.1309 476.575 32.0229 471.752 30.5694 468.536C29.8742 466.866 28.9894 465.073 28.6734 464.516C28.3574 463.898 28.1046 462.97 28.1046 462.475C28.1046 461.98 27.8518 461.053 27.5358 460.434C25.6398 456.724 24.755 438.48 26.2086 432.791C28.6734 423.267 30.8854 418.196 33.5397 415.722C34.3613 414.98 35.0565 413.991 35.0565 413.496C35.0565 413.063 33.5397 411.27 31.7069 409.476C25.9558 403.91 23.6807 398.654 23.6807 390.985C23.6807 385.976 24.3758 383.379 27.5358 376.514C30.3798 370.33 38.6589 360.868 44.41 357.219C46.1796 356.106 47.6963 354.993 47.6963 354.808C47.6963 354.622 47.3171 353.571 46.8115 352.519C45.7372 349.984 44.5364 345.098 44.5364 343.119C44.5364 340.522 46.3692 334.585 48.5179 330.442C49.7187 327.968 52.1203 324.876 54.6482 322.402C58.377 318.692 60.273 317.455 64.7601 315.723C66.7825 314.981 76.5152 313.682 77.5895 314.053C77.9687 314.239 81.7607 314.61 85.9318 314.981C90.103 315.352 95.2221 315.909 97.3077 316.218C111.591 318.259 118.859 318.753 124.736 318.073C128.022 317.64 131.435 317.022 132.32 316.713C137.882 314.548 142.179 312.013 144.265 309.663C146.982 306.632 147.993 306.323 148.562 308.549ZM688.409 310.096C691.506 312.878 694.224 314.425 699.975 316.713C700.86 317.022 704.272 317.64 707.559 318.073C713.436 318.753 721.842 318.197 734.987 316.218C737.073 315.909 742.192 315.352 746.363 314.981C750.534 314.61 754.326 314.239 754.705 314.053C755.653 313.744 765.386 314.919 767.219 315.6C772.78 317.64 777.899 321.598 781.375 326.669C783.587 329.885 784.409 331.493 786.431 336.193C787.253 338.234 787.379 349.365 786.558 349.86C786.242 350.046 785.862 350.85 785.673 351.592C785.546 352.396 785.167 353.509 784.978 354.065C784.599 354.808 785.294 355.612 787.885 357.219C796.922 362.909 806.465 376.762 808.741 387.46C810.257 394.51 807.097 402.983 800.588 409.6L796.606 413.558L798.439 415.475C800.398 417.392 803.558 423.082 803.558 424.566C803.558 425.061 803.811 425.679 804.064 425.988C804.759 426.792 805.96 431.801 806.718 437.244C807.35 441.882 806.592 455.425 805.517 458.455C805.265 459.321 804.633 461.115 804.19 462.475C802.105 469.031 796.922 477.008 795.342 476.081C795.026 475.895 794.71 474.72 794.71 473.483C794.71 469.587 792.182 462.599 789.654 459.445C784.788 453.384 780.238 449.983 772.148 446.334C769.431 445.098 766.713 443.861 766.144 443.551C765.512 443.242 764.501 442.995 763.869 442.995C763.237 442.995 762.479 442.747 762.163 442.5C761.784 442.253 760.393 441.634 759.003 441.201C756.475 440.397 745.605 436.563 743.203 435.574C742.508 435.326 740.928 434.646 739.727 434.151C738.526 433.657 735.682 432.482 733.407 431.554C728.604 429.637 711.603 421.474 707.496 419.124C705.031 417.701 698.964 413.62 695.172 410.837C693.465 409.6 683.48 399.767 681.963 397.912C681.331 397.108 679.435 394.325 677.729 391.789C676.022 389.254 674.632 387.646 674.632 388.203C674.632 388.759 674.885 389.687 675.201 390.305C675.517 390.862 676.844 393.583 678.108 396.304C683.164 406.693 690.558 415.166 700.48 422.092C702.756 423.7 704.968 424.999 705.41 425.061C705.789 425.061 706.232 425.308 706.358 425.555C706.484 425.803 708.254 426.854 710.339 427.782C723.359 433.842 740.169 442.315 746.553 446.025C748.385 447.076 750.029 447.942 750.155 447.942C750.534 447.942 757.233 452.209 761.278 454.992C767.092 459.074 777.204 469.463 781.312 475.586C789.528 487.831 792.814 497.478 792.814 509.166C792.814 519.989 789.844 529.265 783.082 539.407C780.364 543.489 774.739 549.982 773.918 549.982C773.665 549.982 773.475 546.581 773.475 542.376C773.412 534.707 772.78 531.182 769.936 523.081C768.546 518.999 763.68 509.228 761.784 506.569C761.152 505.703 760.583 504.775 760.583 504.528C760.583 504.095 751.166 490.552 750.471 489.995C750.281 489.81 749.27 488.573 748.259 487.212C747.185 485.852 746.237 484.615 746.047 484.429C745.857 484.244 743.582 481.585 740.991 478.554C734.355 470.7 702.06 439.161 693.276 431.925C688.409 427.967 678.297 417.949 676.338 415.166C672.104 409.291 669.639 404.282 667.301 396.86C665.721 391.851 665.531 390.491 665.531 382.08C665.531 372.371 665.974 369.773 668.881 363.775C670.334 360.744 674.316 355.797 675.327 355.797C675.643 355.797 675.896 356.354 675.896 357.096C675.896 358.766 678.487 363.775 680.762 366.681C683.164 369.65 691.38 375.71 695.867 377.751C701.112 380.101 701.555 380.287 706.864 381.956C711.351 383.441 714.005 384.121 719.377 385.42C720.641 385.729 722.853 386.285 724.243 386.656C727.15 387.399 739.221 390.12 743.835 391.109C745.605 391.48 748.006 392.037 749.207 392.284C750.408 392.531 752.999 393.088 754.895 393.521C767.471 395.995 780.238 401.313 787.316 406.879C789.212 408.425 792.056 408.363 795.848 406.693C799.198 405.271 800.398 402.674 800.398 396.922C800.398 389.625 798.376 384.554 794.142 381.152C791.487 378.988 784.535 375.154 780.807 373.793C779.606 373.36 778.026 372.742 777.331 372.495C774.171 371.258 759.319 367.3 753.947 366.248C752.241 365.877 749.523 365.383 747.943 365.073C746.363 364.764 744.088 364.331 742.887 364.146C741.686 363.96 739.537 363.527 738.147 363.218C736.757 362.909 731.638 361.919 726.771 361.054C721.905 360.188 716.912 359.198 715.711 358.889C714.511 358.642 711.919 358.085 710.023 357.652C703.514 356.354 697.447 354.56 693.402 352.705C687.461 349.984 680.952 341.45 680.952 336.44C680.952 333.905 682.595 328.896 683.796 327.968C684.491 327.411 684.87 327.782 685.755 329.638C687.272 332.73 690.748 336.008 694.224 337.677C699.153 339.965 698.9 339.904 712.867 342.068C720.704 343.243 725.254 343.862 737.705 345.284C746.995 346.397 759.635 348.19 763.427 348.994C768.419 350.046 774.803 351.654 775.814 352.148C776.572 352.519 777.141 352.087 778.152 350.293C779.795 347.448 779.985 342.996 778.595 340.398C777.331 337.925 772.907 334.4 770.505 333.781C767.977 333.225 749.965 333.225 726.898 333.843C714.068 334.152 708.57 334.09 706.358 333.596C695.74 330.936 694.287 330.318 690.242 326.484C686.261 322.711 684.238 318.753 683.669 313.806C683.353 310.281 683.733 306.942 684.491 306.942C684.744 306.942 686.45 308.364 688.409 310.096ZM117.215 484.367C121.829 487.954 123.535 493.891 122.335 502.24C121.576 507.249 120.944 510.094 119.743 513.186C119.491 513.866 118.922 515.536 118.543 516.897C118.163 518.257 117.342 521.287 116.647 523.699C115.319 528.276 113.739 534.769 112.791 539.469C112.475 541.015 111.907 543.551 111.527 545.159C111.211 546.766 110.895 549.673 110.895 551.652L110.959 555.239L112.918 550.601C118.1 538.541 128.149 528.585 141.105 522.586C143.317 521.597 145.276 520.916 145.465 521.102C145.655 521.287 143.822 523.452 141.484 525.926C139.082 528.337 136.807 530.687 136.365 531.12C134.722 532.79 127.454 544.293 125.621 548.127C123.788 551.961 121.197 559.259 119.807 564.515C117.215 574.41 117.342 606.568 120.059 620.173C121.45 627.162 122.019 629.45 123.662 634.335C126.316 642.437 130.108 650.291 133.774 655.609C135.354 657.835 135.48 658.268 134.595 658.577C133.584 658.949 129.792 658.145 127.011 657.031C122.019 654.929 120.502 654.063 116.457 650.847C111.148 646.766 107.609 642.746 104.512 637.489C98.8245 627.718 96.5493 621.039 94.5269 607.805C94.2109 605.393 93.5157 601.373 93.1365 598.838C92.1253 592.653 92.0621 560.866 93.0733 552.765C94.4005 542.623 95.1589 536.81 95.4749 534.645C95.6645 533.594 95.5381 532.666 95.2853 532.666C94.2741 532.666 90.735 539.16 89.2182 543.798C84.7942 557.341 82.9615 567.422 81.1919 587.706C80.8127 592.282 80.3071 596.488 80.1807 596.982C79.3591 599.394 71.9016 588.263 70.3848 582.388C70.0056 581.027 69.4368 578.863 69.0577 577.502C67.9833 573.606 67.6673 557.651 68.6153 553.693C72.028 538.665 74.4296 531.862 80.6231 519.989C88.3966 504.961 95.2221 496.241 106.724 486.656C112.918 481.461 113.297 481.399 117.215 484.367ZM725.065 486.161C730.31 490.304 738.021 498.406 742.002 503.971C744.214 507.125 746.047 509.908 746.047 510.279C746.047 510.65 746.237 511.022 746.553 511.145C748.069 511.764 756.222 528.523 758.876 536.377C761.973 545.468 762.668 548.251 764.375 557.651C765.449 563.835 765.196 568.288 763.048 578.121C761.531 585.047 759.888 588.634 756.032 593.767C752.367 598.59 751.482 598.096 751.293 591.107C751.04 581.274 748.449 562.784 746.11 553.693C745.415 551.157 744.657 548.374 744.467 547.509C744.214 546.643 743.835 545.406 743.519 544.726C743.266 544.045 742.381 541.943 741.686 540.087C740.928 538.17 739.474 535.387 738.4 533.903L736.441 531.12L736.883 534.522C737.136 536.377 737.578 539.716 737.894 541.943C741.686 571.256 740.359 604.404 734.608 622.771C731.701 631.862 725.254 642.746 719.756 647.693C716.28 650.909 711.098 654.558 708.76 655.547C701.492 658.577 697.384 659.567 697.384 658.206C697.384 657.835 698.016 656.537 698.837 655.238C702.945 648.868 708.57 636.376 710.15 630.377C715.775 608.361 716.027 571.009 710.655 557.713C710.339 557.032 709.644 555.239 709.076 553.693C705.157 543.427 698.584 533.347 690.558 525.307C688.409 523.143 686.766 521.225 686.956 521.04C687.335 520.607 698.648 526.111 700.48 527.595C706.484 532.419 709.012 534.769 711.983 538.356C713.815 540.644 715.459 542.87 715.648 543.303C715.775 543.736 716.091 544.231 716.28 544.416C717.039 544.973 720.135 551.837 720.135 552.951C720.135 553.816 720.262 553.878 720.767 553.074C721.399 552.085 721.02 545.406 720.135 541.943C719.883 540.768 719.314 538.232 718.871 536.377C718.05 532.419 717.671 530.997 715.016 521.844C712.804 514.114 712.425 512.753 711.035 507.744C709.897 503.724 709.644 491.541 710.655 490.923C711.035 490.737 711.287 490.057 711.287 489.439C711.287 488.016 714.89 484.058 717.291 482.883C719.377 481.894 719.946 482.079 725.065 486.161Z" fill="#9B2727"/>
<path d="M362.428 174.042C356.235 175.836 351.052 180.598 351.052 184.555C351.052 185.792 351.052 185.792 353.011 184.37C354.086 183.566 355.413 182.638 356.045 182.329C356.614 181.958 357.183 181.525 357.372 181.34C357.562 181.154 359.647 180.103 362.049 178.99C369.822 175.341 378.797 175.094 391.184 178.062C394.66 178.928 398.515 179.855 399.716 180.165C406.541 181.773 409.069 182.082 416.147 182.082C423.226 182.082 425.817 181.773 432.579 180.103C449.201 176.083 454.762 175.341 461.714 176.33C466.77 177.073 473.279 179.979 478.272 183.69C481.242 185.916 481.874 186.225 481.874 185.298C481.874 182.886 477.387 177.32 473.975 175.465C468.792 172.682 456.532 172.805 437.951 175.836C428.598 177.382 416.211 177.876 407.173 177.196C402.18 176.763 396.429 176.207 394.344 175.836C381.514 173.733 366.346 172.929 362.428 174.042Z" fill="#9B2727"/>
<path d="M346.944 192.595C340.688 193.399 335.821 194.388 333.988 195.192C332.535 195.811 332.598 195.873 335.568 196.305C337.338 196.553 341.256 196.8 344.353 196.8C347.513 196.862 351.747 197.171 353.833 197.542C355.982 197.913 359.268 198.47 361.164 198.779C363.06 199.15 367.231 200.078 370.328 200.882C378.165 202.923 380.503 203.356 392.132 205.458C413.051 209.107 432.642 207.994 458.175 201.686C471.51 198.346 476.313 197.604 489.079 196.862C494.577 196.553 499.254 196.182 499.444 195.996C500.265 195.13 493.503 193.646 483.518 192.471C477.387 191.729 469.803 192.224 464.495 193.77C463.483 194.017 459.881 194.759 456.595 195.316C453.308 195.873 449.074 196.553 447.178 196.924C445.282 197.233 431.568 197.48 416.779 197.48C392.764 197.48 388.845 197.357 381.641 196.244C377.153 195.563 372.224 194.698 370.644 194.327C362.491 192.471 353.138 191.791 346.944 192.595Z" fill="#9B2727"/>
<path d="M322.929 211.209C315.787 212.879 308.077 215.786 308.077 216.837C308.077 217.146 309.657 217.146 311.742 216.899C313.702 216.651 320.464 216.466 326.721 216.466C339.297 216.528 342.331 216.961 361.164 221.784C367.8 223.454 380.124 226.299 384.548 227.165C394.66 229.144 412.798 230.566 421.014 230.009C440.353 228.711 444.397 228.154 460.387 224.382C464.368 223.454 468.666 222.465 469.867 222.155C471.067 221.908 473.216 221.351 474.607 220.98C489.585 216.837 500.961 215.6 515.686 216.651C520.489 216.961 524.597 217.084 524.724 216.961C524.913 216.837 523.46 216.033 521.627 215.229C512.779 211.271 508.481 210.467 496.853 210.467C486.678 210.467 479.599 211.395 463.104 214.858C461.588 215.167 459.186 215.662 457.732 215.971C440.858 219.496 432.074 220.486 416.147 220.486C401.548 220.486 393.901 219.744 381.072 217.208C371.655 215.353 371.466 215.353 363.06 213.621C351.116 211.147 344.859 210.467 335.379 210.529C329.881 210.591 324.319 210.838 322.929 211.209Z" fill="#9B2727"/>
<path d="M321.033 231.494C319.642 231.803 316.798 232.051 314.776 232.051C312.69 232.112 310.162 232.36 309.088 232.731C298.091 236.132 293.731 238.173 286.779 242.997C280.396 247.449 280.459 248.624 286.968 245.656C293.478 242.749 293.415 242.811 299.861 241.018C305.296 239.472 306.939 239.348 316.609 239.286C328.743 239.286 332.535 239.905 345.048 243.986C352.443 246.398 355.666 247.759 373.172 256.045C383.726 261.055 382.905 260.684 390.868 263.281C405.088 267.795 417.538 268.661 431.315 266.002C434.728 265.384 443.702 262.848 446.167 261.859C446.862 261.549 448.126 261.055 449.011 260.745C449.896 260.374 454.13 258.457 458.491 256.355C479.536 246.336 486.741 243.553 498.938 240.585C503.362 239.533 506.206 239.348 515.37 239.348C527.883 239.348 531.549 240.028 542.546 244.295C543.43 244.666 545.39 245.532 546.843 246.274C550.698 248.068 551.267 247.882 548.802 245.656C542.672 240.028 533.951 235.699 523.27 232.854C520.805 232.174 511.199 231.308 507.47 231.37C503.994 231.432 492.934 232.607 490.027 233.287C486.93 233.968 479.915 236.132 477.767 237.06C477.071 237.369 475.365 237.926 473.975 238.358C472.584 238.73 470.878 239.286 470.183 239.595C469.487 239.843 468.223 240.214 467.339 240.337C466.454 240.523 464.179 241.08 462.283 241.574C449.011 245.161 429.166 247.82 416.147 247.82C411.534 247.82 398.072 246.769 390.552 245.78C386.191 245.223 375.131 242.935 370.012 241.574C368.116 241.08 365.841 240.523 364.956 240.337C364.071 240.214 362.807 239.843 362.112 239.595C361.417 239.286 359.711 238.73 358.32 238.358C356.93 237.926 355.223 237.369 354.528 237.06C349.093 234.648 341.193 232.793 333.672 232.112C330.576 231.865 326.973 231.494 325.773 231.308C324.572 231.123 322.423 231.247 321.033 231.494Z" fill="#9B2727"/>
<path d="M364.198 304.777C363.692 305.272 365.651 306.942 370.012 309.848C380.25 316.713 381.388 322.34 373.93 329.39C365.462 337.43 357.246 341.388 343.152 344.356C336.517 345.779 335.569 346.583 339.424 347.696C341.888 348.438 342.9 348.438 345.554 347.758C348.714 346.954 355.476 343.738 358.763 341.511C359.647 340.831 360.722 340.336 361.101 340.336C361.48 340.336 361.796 340.027 361.796 339.718C361.796 339.347 362.112 339.1 362.491 339.1C364.071 339.1 388.972 321.536 388.972 320.423C388.972 319.805 384.485 314.548 380.124 310.096C378.986 308.982 376.458 307.313 374.499 306.447C371.023 304.901 365.083 303.911 364.198 304.777Z" fill="#9B2727"/>
<path d="M460.703 305.334C459.312 305.766 457.29 306.57 456.216 307.127C453.372 308.611 443.955 318.692 443.955 320.361C443.955 321.165 444.777 322.278 446.041 323.144C448.252 324.628 448.379 324.752 451.223 326.917C454.952 329.761 467.402 337.863 467.971 337.863C468.35 337.863 468.603 338.11 468.603 338.357C468.603 338.667 469.361 339.285 470.372 339.78C471.32 340.213 473.09 341.202 474.291 341.944C484.023 347.634 488.384 348.994 492.871 347.696C494.451 347.263 495.778 346.644 495.778 346.397C495.778 346.15 494.577 345.655 493.124 345.284C491.607 344.913 489.395 344.418 488.194 344.109C486.994 343.8 484.339 343.181 482.317 342.748C480.294 342.315 478.525 341.759 478.335 341.45C478.146 341.202 477.577 340.955 477.008 340.955C474.038 340.955 462.346 333.534 457.859 328.772C454.193 324.876 453.435 323.515 453.435 320.856C453.435 317.578 455.9 314.548 462.536 309.724C465.822 307.374 468.35 305.21 468.16 304.963C467.718 304.22 463.547 304.468 460.703 305.334Z" fill="#9B2727"/>
<path d="M336.824 307.235C335.117 307.606 332.842 308.348 331.768 308.905C329.05 310.265 326.775 311.564 326.396 311.935C326.206 312.12 324.373 313.666 322.288 315.336C320.202 317.068 317.801 319.047 316.916 319.851C316.031 320.655 311.734 323.685 307.31 326.591C297.893 332.776 297.514 333.085 298.462 335.064C299.41 337.167 302.001 337.599 305.161 336.115C308.195 334.631 315.905 327.457 319.507 322.634C323.299 317.624 325.321 318.119 330.567 325.355C334.106 330.24 334.422 330.549 336.508 331.539C340.3 333.332 345.229 333.827 350.475 333.023C357.49 331.848 359.702 330.982 363.241 328.014C367.791 324.056 368.297 323.128 367.223 320.531C365.959 317.624 362.23 313.543 358.88 311.502C357.363 310.574 356.099 309.585 356.099 309.276C356.099 309.028 355.594 308.843 354.962 308.843C354.33 308.843 353.572 308.595 353.256 308.286C352.308 307.42 346.304 306.369 342.954 306.431C341.311 306.493 338.593 306.802 336.824 307.235Z" fill="#9B2727"/>
<path d="M481.242 307.189C478.398 307.931 473.658 309.972 473.027 310.652C472.837 310.838 471.51 311.889 469.993 313.064C466.58 315.661 463.547 319.928 463.547 322.217C463.547 324.443 468.287 329.081 472.395 330.875C477.198 332.977 484.782 333.905 489.521 332.915C494.704 331.864 496.221 330.813 500.581 325.123C506.206 317.826 507.596 317.64 512.084 323.268C517.582 330.132 523.586 335.451 527.251 336.688C530.727 337.863 534.393 334.956 532.434 332.544C531.991 332.05 528.768 329.823 525.292 327.597C518.972 323.515 513.032 319.124 507.786 314.424C506.206 313.064 504.752 311.889 504.5 311.889C504.247 311.889 503.678 311.518 503.236 311.085C501.782 309.724 496.789 307.622 493.377 307.003C489.079 306.138 484.845 306.199 481.242 307.189Z" fill="#9B2727"/>
<path d="M305.928 462.908C302.452 466.371 299.798 470.515 297.775 475.771C296.448 479.173 296.069 480.162 295.5 481.461C295.184 482.265 293.983 485.233 292.909 488.14C285.641 507.187 277.109 518.443 259.666 531.924L257.833 533.347L259.729 532.914C261.499 532.543 270.031 528.523 270.789 527.719C270.979 527.533 272.748 526.358 274.771 524.998C279.511 521.906 286.652 514.918 291.266 508.981C293.225 506.322 295.121 504.343 295.374 504.528C295.69 504.652 296.259 507.064 296.701 509.785C297.333 513.804 297.333 515.536 296.701 518.628C296.259 520.731 295.627 522.71 295.374 523.081C295.058 523.39 294.805 524.008 294.805 524.503C294.805 525.802 289.686 532.605 286.526 535.449C285.009 536.81 281.66 539.716 279.132 541.819C275.087 545.22 274.392 546.705 277.615 545.097C282.039 542.932 284.251 541.943 284.82 541.943C285.136 541.943 287.853 540.397 290.76 538.541C293.731 536.686 296.385 535.14 296.701 535.14C297.649 535.14 297.459 537.119 296.385 539.716C294.805 543.427 291.961 545.591 283.113 549.797C273.507 554.373 266.808 557.898 263.711 559.939C262.826 560.619 261.878 561.114 261.625 561.114C261.057 561.114 251.64 567.546 249.049 569.71C244.119 573.792 239.822 578.059 239.822 578.801C239.822 579.296 241.465 578.492 243.803 576.946C247.279 574.534 254.231 570.328 259.729 567.298C265.86 563.959 284.756 554.93 285.704 554.93C286.084 554.93 291.203 552.642 296.385 550.23C303.969 546.581 310.162 542.994 312.374 540.891C312.817 540.459 313.575 540.088 314.018 540.088C316.166 540.088 309.278 558.393 303.274 568.535C301.567 571.38 297.586 576.513 296.385 577.317C296.069 577.564 296.006 577.811 296.259 577.811C296.575 577.811 298.028 576.946 299.545 575.956C301.062 574.905 302.452 574.101 302.642 574.101C303.21 574.101 323.308 559.939 324.509 558.64C324.698 558.455 326.531 556.97 328.617 555.301C330.702 553.631 336.2 548.498 340.751 543.922C347.387 537.305 349.219 535.82 349.535 536.624C349.978 537.799 349.03 541.51 347.387 545.035C344.606 551.034 338.223 558.331 329.249 565.814C326.847 567.793 324.445 569.834 323.94 570.267C322.676 571.442 302.958 586.84 296.385 591.726C291.203 595.622 280.332 604.094 275.466 608.052C274.392 608.918 272.812 610.217 271.99 610.835C266.934 614.793 256.886 624.008 252.778 628.584C247.785 634.088 246.9 635.201 243.487 640.025C237.799 648.126 236.03 652.95 236.03 660.062L236.093 664.082L237.863 659.01C239.569 654.249 243.866 645.776 245.826 643.488C246.331 642.931 247.974 640.767 249.554 638.664C257.265 628.522 268.767 618.504 286.147 606.939C292.34 602.858 297.523 599.456 297.712 599.456C297.902 599.456 298.344 599.147 298.787 598.838C300.177 597.663 308.014 592.654 308.393 592.654C308.582 592.654 309.088 592.344 309.53 592.035C310.099 591.54 321.665 584.367 328.048 580.471C332.092 578.059 339.613 573.235 341.256 572.06C352.443 564.082 362.238 555.301 370.581 545.963L373.867 542.252L373.488 545.344C372.793 550.601 369.696 557.465 365.272 563.588C362.049 568.04 354.212 576.142 349.662 579.667C343.342 584.614 337.78 589.561 329.501 597.601C322.17 604.713 320.527 606.63 318.568 610.588C317.304 613.123 316.103 616.154 315.913 617.267C315.534 618.998 316.988 617.762 328.048 607.001C335 600.322 343.216 592.715 346.312 590.242C349.472 587.706 355.413 582.264 359.584 578.182C368.306 569.648 375.005 560.372 381.072 548.56C385.433 540.088 387.834 537.057 392.89 533.841C398.768 530.131 406.478 528.337 416.4 528.337C425.122 528.337 432.769 530.007 438.457 533.223C443.702 536.191 446.673 539.655 451.096 548.127C454.952 555.61 456.405 558.145 457.416 559.506C457.669 559.877 458.933 561.732 460.197 563.588C466.454 572.802 477.071 583.439 490.786 594.2C492.113 595.189 498.369 601.126 504.626 607.31C510.946 613.556 516.255 618.627 516.381 618.627C517.203 618.627 516.318 615.968 514.043 611.33C511.768 606.692 510.504 605.146 503.805 598.529C495.273 590.242 490.28 585.727 482.759 579.667C471.889 570.823 464.874 562.227 461.082 552.889C458.933 547.756 458.301 543.798 459.439 543.427C459.818 543.303 460.766 544.231 461.651 545.53C463.61 548.374 475.997 560.619 480.294 563.959C482.001 565.257 483.77 566.618 484.15 566.989C484.529 567.298 486.488 568.721 488.447 570.081C490.406 571.442 493.124 573.359 494.388 574.348C495.652 575.276 499.065 577.44 501.972 579.11C504.816 580.78 509.998 583.934 513.537 586.16C517.013 588.386 520.11 590.18 520.426 590.18C520.805 590.18 521.058 590.427 521.058 590.798C521.058 591.107 521.374 591.417 521.69 591.417C522.322 591.417 529.653 595.993 531.612 597.601C532.055 597.91 532.56 598.219 532.75 598.219C533.319 598.219 556.829 614.051 560.241 616.71C574.84 628.089 586.279 641.138 591.588 652.455C592.852 655.114 594.116 657.774 594.432 658.33C594.748 658.949 595.001 660 595.001 660.618C595.001 661.299 595.317 662.041 595.633 662.226C596.644 662.845 596.391 655.485 595.254 652.208C593.927 648.312 591.525 643.55 589.755 641.262C589.503 640.891 587.923 638.788 586.343 636.562C582.677 631.552 569.848 618.689 563.085 613.185C560.305 610.897 557.903 608.918 557.713 608.733C557.524 608.547 556.007 607.248 554.237 605.95C552.531 604.589 550.951 603.29 550.762 603.105C550.572 602.919 548.992 601.621 547.222 600.322C545.453 599.023 542.925 597.044 541.534 596.055C540.207 595.004 538.754 593.89 538.374 593.581C537.995 593.21 536.921 592.406 535.973 591.726C533.571 590.056 521.121 580.471 519.162 578.801C518.277 578.121 516.571 576.76 515.37 575.894C514.169 574.967 512.589 573.73 511.894 573.111C511.199 572.431 508.924 570.576 506.838 568.844C497.548 561.299 492.176 555.919 488.194 550.23C485.034 545.715 482.506 539.655 482.506 536.624C482.506 535.14 483.581 536.068 491.544 543.922C498.938 551.343 510.124 560.743 517.898 566.247C526.556 572.246 528.452 573.544 529.4 573.853C530.032 574.039 530.538 574.472 530.538 574.781C530.538 575.09 530.917 575.338 531.359 575.338C531.739 575.338 532.813 575.894 533.698 576.575C536.668 578.863 536.794 577.811 533.887 574.781C532.307 573.111 530.222 570.39 529.274 568.721C528.326 567.113 526.999 564.763 526.303 563.588C523.523 558.702 517.898 543.86 517.898 541.386C517.898 539.593 518.53 539.716 521.753 542.19C523.27 543.365 526.114 545.159 528.01 546.21C533.255 549.055 545.769 554.93 546.654 554.93C547.096 554.93 555.881 558.949 561.505 561.732C573.324 567.546 579.391 570.885 586.722 575.709C590.008 577.873 592.852 579.481 593.042 579.296C593.231 579.11 591.083 576.822 588.302 574.163C583.183 569.339 574.082 562.784 568.141 559.568C566.435 558.64 564.729 557.651 564.349 557.403C564.033 557.094 558.725 554.497 552.657 551.528C540.65 545.653 536.542 542.499 535.215 538.047C534.14 534.46 534.962 534.336 539.512 537.243C541.787 538.789 545.895 541.015 548.613 542.252C551.33 543.489 554.111 544.788 554.68 545.097C557.777 546.705 557.334 545.282 553.795 542.438C545.895 536.068 540.27 530.007 537.869 525.06C535.657 520.669 535.594 520.236 535.594 513.619C535.594 503.724 536.352 502.735 540.081 507.744C543.114 511.949 552.341 521.287 556.449 524.256C561.758 528.09 569.216 532.172 572.565 532.914L574.461 533.409L573.134 532.234C572.376 531.615 570.669 530.316 569.342 529.265C564.918 525.926 556.513 517.701 553.037 513.248C547.349 505.951 544.252 500.199 539.133 487.212C532.181 469.649 530.601 466.619 526.051 462.537C523.965 460.62 522.006 459.074 521.627 459.074C521.311 459.074 521.058 459.754 521.058 460.62C521.058 461.424 520.552 462.352 519.984 462.723C516.002 464.763 491.734 465.258 470.183 463.774C458.175 462.97 451.096 463.156 451.349 464.331C451.476 464.702 455.078 465.135 459.565 465.32C470.246 465.877 476.945 466.928 485.666 469.587C492.492 471.628 493.819 473.298 489.332 474.163C478.841 476.204 470.435 477.379 455.331 478.802C427.902 481.461 395.544 481.214 370.644 478.245C354.212 476.328 353.833 476.266 346.628 474.906C342.584 474.163 340.688 473.545 340.498 472.865C340.182 471.937 341.446 471.319 346.628 469.587C354.465 467.052 361.986 465.877 372.856 465.32C377.785 465.135 381.009 464.702 380.945 464.331C380.693 463.156 374.057 462.97 362.112 463.774C347.387 464.825 324.319 464.887 317.873 463.96C312.88 463.217 311.237 462.29 311.237 460.249C311.237 458.27 310.036 458.888 305.928 462.908ZM332.282 489.624C332.724 490.119 334.684 491.479 336.58 492.593C347.26 499.21 358.383 502.178 378.101 503.662C386.697 504.343 391.5 504.095 391.5 503.106C391.5 502.797 389.288 502.116 386.633 501.498C381.135 500.323 381.514 500.447 368.685 496.303C351.747 490.923 348.145 491.294 416.147 491.294C472.521 491.294 475.807 491.356 474.354 492.345C472.963 493.273 459.628 497.911 454.383 499.272C453.372 499.581 450.907 500.199 449.011 500.694C447.115 501.189 444.461 501.807 443.197 501.993C441.869 502.24 440.795 502.673 440.795 502.982C440.795 504.033 445.977 504.281 454.509 503.662C474.796 502.054 485.098 499.21 497.169 491.665C502.92 488.14 505.132 488.078 507.217 491.418C509.113 494.571 508.734 498.097 505.764 504.095C502.414 510.774 492.934 517.762 483.77 520.236C482.19 520.669 480.042 521.287 478.967 521.597C477.893 521.906 476.376 522.153 475.555 522.153C474.733 522.153 473.216 522.401 472.142 522.772C471.067 523.081 466.391 523.637 461.84 524.07C449.706 525.183 441.869 524.194 430.051 520.174C427.081 519.123 422.783 517.948 420.445 517.453C415.452 516.402 411.597 516.958 402.244 520.174C390.425 524.194 382.589 525.183 370.454 524.07C365.904 523.637 361.227 523.081 360.153 522.772C359.079 522.401 357.562 522.153 356.74 522.153C355.919 522.153 354.402 521.906 353.327 521.597C352.253 521.287 350.104 520.669 348.524 520.236C345.112 519.308 340.561 517.144 335.884 514.052C328.427 509.228 324.509 502.858 324.509 495.623C324.509 492.407 324.761 491.232 325.646 490.49C327.795 488.635 330.828 488.264 332.282 489.624Z" fill="#9B2727"/>
<path d="M157.726 387.089C157.726 387.769 157.916 387.955 158.105 387.46C158.295 387.027 158.232 386.471 158.042 386.285C157.852 386.038 157.663 386.409 157.726 387.089Z" fill="#9B2727"/>
</svg>
